<?xml version="1.0" encoding="UTF-8"?>
<svg width="765.04" height="146.95" version="1.1" viewBox="0 0 765.04 146.95" xml:space="preserve" xmlns="http://www.w3.org/2000/svg" xmlns:cc="http://creativecommons.org/ns#" xmlns:dc="http://purl.org/dc/elements/1.1/" xmlns:rdf="http://www.w3.org/1999/02/22-rdf-syntax-ns#"><metadata><rdf:RDF><cc:Work rdf:about=""><dc:format>image/svg+xml</dc:format><dc:type rdf:resource="http://purl.org/dc/dcmitype/StillImage"/><dc:title/></cc:Work></rdf:RDF></metadata><defs><clipPath id="clipPath90"><path d="m433.63 96.851 12.054-7.987c1.298 1.96 2.791 3.799 4.439 5.468l-10.287 10.16c-2.304-2.333-4.392-4.903-6.206-7.641m-5.337-10.518 13.563-5.011c0.814 2.205 1.847 4.342 3.07 6.351l-12.353 7.516c-1.704-2.801-3.144-5.781-4.28-8.856m-2.782-11.472 14.352-1.754c0.285 2.328 0.799 4.643 1.528 6.88l-13.745 4.485c-1.02-3.124-1.738-6.357-2.135-9.611m-0.055-11.821 14.369 1.626c-0.264 2.329-0.299 4.697-0.107 7.038l-14.41 1.191c-0.27-3.277-0.221-6.593 0.148-9.855m0.261-1.956c0.133-0.879 0.293-1.768 0.475-2.64 0.482-2.324 1.136-4.644 1.961-6.946l0.039-0.106 13.599 4.912-0.046 0.127c-0.58 1.617-1.049 3.283-1.396 4.95-0.129 0.625-0.244 1.26-0.339 1.89zm3.187-11.546c1.239-3.048 2.776-5.982 4.569-8.718l12.095 7.922c-1.281 1.957-2.38 4.057-3.268 6.241zm5.682-10.347c1.904-2.674 4.082-5.175 6.471-7.432l9.928 10.513c-1.707 1.612-3.261 3.398-4.621 5.307zm7.929-8.755c2.467-2.156 5.627-1.964 8.47-3.609l6.774 10.396c-2.036 1.179-3.965 2.559-5.731 4.101z"/></clipPath><linearGradient id="linearGradient100" x2="1" gradientTransform="matrix(-12.696 85.124 85.124 12.696 444.51 33.505)" gradientUnits="userSpaceOnUse"><stop stop-color="#5d6e78" offset="0"/><stop stop-color="#9fb9c6" offset="1"/></linearGradient><clipPath id="clipPath110"><path d="m442.35 116.92c-4.298-3.343-5.08-9.595-1.738-13.892l11.504-14.791c0.403-0.52 1.158-0.614 1.677-0.211l6.871 5.343c2.849 2.216 4.143 5.709 3.724 9.064-0.926-0.943-2.131-1.632-3.523-1.921-3.737-0.775-7.396 1.626-8.17 5.363-0.72 3.473 1.305 6.875 4.594 7.96l-1.048 1.347c-1.944 2.501-4.874 3.811-7.831 3.811-2.125 0-4.263-0.676-6.06-2.073"/></clipPath><linearGradient id="linearGradient120" x2="1" gradientTransform="matrix(-13.024 87.323 87.323 13.024 462.07 34.272)" gradientUnits="userSpaceOnUse"><stop stop-color="#5d6e78" offset="0"/><stop stop-color="#9fb9c6" offset="1"/></linearGradient></defs><g transform="matrix(1.3333 0 0 -1.3333 -19.362 160.27)"><g transform="translate(546.55 113.23)"><path d="m0 0c0.022 0.042 0.037 0.091 0.039 0.143l0.01 0.033c0.497 0.69 0.612 1.414 0.723 2.116 0.093 0.457 0.191 0.991 0.191 1.539 0 0.372-0.046 0.724-0.137 1.073l-0.028 0.109c-0.172 0.688-0.408 1.628-1.44 1.918-0.053 0.014-0.111 0.018-0.157 0.013-0.635-0.052-1.082-0.425-1.368-1.149-0.258-0.686-0.388-1.41-0.388-2.151 0-0.986 0.229-2.027 0.68-3.095 0.104-0.243 0.223-0.478 0.353-0.698l0.099-0.169 0.479 0.748-0.03 0.061c-0.051 0.101-0.1 0.206-0.148 0.312-0.412 0.983-0.621 1.938-0.621 2.84 0 0.669 0.114 1.315 0.341 1.92 0.144 0.366 0.323 0.576 0.544 0.644 0.029 0.01 0.07 8e-3 0.099-4e-3 0.447-0.195 0.608-0.703 0.769-1.346l0.029-0.116c0.078-0.299 0.115-0.597 0.115-0.913 0-0.483-0.087-0.965-0.179-1.43-0.103-0.653-0.201-1.27-0.607-1.837-0.037-0.041-0.067-0.089-0.09-0.14-1e-3 -5e-3 -5e-3 -0.011-7e-3 -0.016l-0.577-0.902-0.026-0.036c-0.541-0.567-1.202-0.829-1.877-0.767-0.422 0.058-0.812 0.254-1.165 0.582l-0.093 0.086-0.08-0.096c-0.093-0.11-0.208-0.233-0.349-0.376l-0.088-0.09 0.093-0.083c0.464-0.415 0.979-0.654 1.585-0.734 0.104-0.011 0.208-0.016 0.312-0.016 0.771 0 1.495 0.291 2.111 0.86l0.605 0.709c0.098 0.143 0.191 0.296 0.278 0.458" fill="#ec1c24"/></g><g transform="translate(550.62 112.77)"><path d="m0 0v0.037c0.475 0.676 0.807 1.466 1.013 2.417 0.105 0.535 0.204 1.113 0.204 1.707 0 0.338-0.03 0.647-0.091 0.95l-0.01 0.039c-0.046 0.135-0.07 0.274-0.097 0.427-0.031 0.167-0.064 0.358-0.136 0.541l-0.017 0.035c-0.115 0.243-0.235 0.494-0.425 0.759-0.018 0.022-0.035 0.043-0.057 0.062-0.188 0.156-0.421 0.352-0.748 0.42l-0.035 6e-3c-0.407 0.062-0.786-0.092-1.122-0.468-0.012-0.014-0.023-0.028-0.029-0.037-0.549-0.829-0.804-1.872-0.736-3.016 0.072-1.054 0.254-2.418 1.027-3.613l0.093-0.143 0.103 0.135c0.137 0.18 0.278 0.37 0.356 0.485l0.041 0.062-0.037 0.064c-0.575 1.024-0.717 2.169-0.778 3.049-3e-3 0.109-7e-3 0.217-7e-3 0.323 0 0.856 0.213 1.639 0.623 2.273 0.146 0.155 0.23 0.178 0.295 0.181 8e-3 1e-3 0.033-1e-3 0.05-6e-3 0.085-0.028 0.174-0.094 0.316-0.213 0.139-0.205 0.239-0.417 0.328-0.604l2e-3 -5e-3c0.042-0.113 0.066-0.242 0.093-0.399 0.025-0.144 0.057-0.323 0.118-0.508 0.049-0.264 0.072-0.524 0.072-0.796 0-0.542-0.096-1.102-0.19-1.577-0.144-0.668-0.353-1.24-0.639-1.746l-0.017-0.029-0.033-0.017v-0.039c-0.053-0.089-0.2-0.3-0.579-0.79l-0.07-0.081c-0.546-0.556-1.101-0.794-1.687-0.725-0.503 0.048-0.959 0.247-1.356 0.59l-0.091 0.081-0.495-0.581 0.095-0.077c0.506-0.417 1.096-0.661 1.755-0.725 0.096-0.011 0.194-0.016 0.289-0.016 0.709 0 1.375 0.293 1.995 0.88 0.14 0.14 0.396 0.408 0.575 0.669z" fill="#ec1c24"/></g><g transform="translate(542 112.77)"><path d="m0 0v0.036c0.985 1.345 1.146 2.952 1.184 4.057 0 0.792-0.134 1.497-0.427 2.23-0.239 0.533-0.636 0.901-1.147 1.061-0.081 0.025-0.169 0.027-0.243 0.01-1.328-0.32-1.471-1.547-1.567-2.367-0.012-0.094-0.023-0.186-0.033-0.273-0.031-0.255-0.047-0.513-0.047-0.768 0-1.209 0.345-2.447 0.993-3.575 0.018-0.037 0.04-0.075 0.062-0.111l0.086-0.145 0.11 0.13c0.153 0.184 0.276 0.353 0.365 0.503l0.033 0.058-0.031 0.059c-0.531 0.987-0.81 2.053-0.81 3.082 0 0.234 0.014 0.464 0.039 0.681 0.014 0.094 0.025 0.188 0.036 0.293 0.094 0.801 0.213 1.433 0.789 1.679 0.035 0.016 0.083 0.015 0.122-6e-3 0.199-0.11 0.362-0.296 0.48-0.551l0.01-0.022c0.254-0.637 0.371-1.261 0.371-1.964-0.043-1.32-0.291-2.368-0.755-3.205l-0.016-0.03v-2e-3c-0.222-0.429-0.664-0.887-0.668-0.892l-0.037-0.036c-0.13-0.134-0.276-0.261-0.426-0.379-0.284-0.215-0.873-0.547-1.651-0.36-0.093 0.038-0.206 0.082-0.379 0.136-0.216 0.109-0.404 0.239-0.612 0.425l-0.089 0.08-0.08-0.089c-0.118-0.133-0.258-0.269-0.356-0.367l-0.093-0.09 0.097-0.085c0.249-0.216 0.506-0.388 0.789-0.522 0.021-0.012 0.044-0.02 0.072-0.028 0.142-0.041 0.237-0.079 0.347-0.125 0.018-8e-3 0.039-0.016 0.059-0.021 0.229-0.059 0.462-0.088 0.692-0.088 0.612 0 1.217 0.202 1.729 0.589 0.126 0.099 0.245 0.2 0.353 0.3 3e-3 4e-3 0.395 0.374 0.608 0.671z" fill="#ec1c24"/></g><g transform="translate(537.62 112.75)"><path d="m0 0 0.041 0.021v0.033c0.338 0.443 0.602 0.951 0.785 1.511 0.234 0.708 0.349 1.494 0.349 2.4 0 0.308-0.015 0.635-0.041 0.973-2e-3 0.687-0.163 1.253-0.508 1.787l-0.062 0.078c-0.287 0.365-0.649 0.741-1.284 0.614-0.426-0.075-0.673-0.352-0.851-0.553-0.017-0.019-0.032-0.037-0.042-0.057-0.443-0.741-0.658-1.574-0.658-2.547 0-0.381 0.032-0.789 0.104-1.302 0.162-0.845 0.389-1.75 0.943-2.638l0.089-0.142 0.527 0.645-0.039 0.07c-0.414 0.747-0.595 1.519-0.722 2.175l-2e-3 0.01c-0.061 0.455-0.089 0.828-0.089 1.173 0 0.847 0.177 1.561 0.548 2.197 0.13 0.144 0.229 0.248 0.373 0.272 0.021 5e-3 0.042 7e-3 0.06 7e-3 0.014 0 0.027-3e-3 0.036-4e-3 0.071-0.019 0.141-0.073 0.345-0.328l0.036-0.046c0.268-0.422 0.387-0.862 0.391-1.451 0.024-0.32 0.037-0.634 0.037-0.93 0-1.293-0.241-2.321-0.738-3.141l-0.037-0.018v-0.036l-0.645-0.792c-0.262-0.247-0.565-0.463-0.914-0.653-0.037-0.015-0.091-0.032-0.141-0.05l-0.034-0.011c-0.047-0.016-0.094-0.032-0.131-0.047-0.011-3e-3 -0.023-7e-3 -0.034-9e-3 -0.556-0.092-1.157 0.052-1.632 0.403-1.176 1.054-1.824 2.589-1.824 4.323 0 0.606-0.503 0.727-0.702 0.426-0.07-0.104-0.107-0.25-0.107-0.421 0-1.936 0.738-3.657 2.076-4.847l0.024-0.02c0.526-0.397 1.167-0.609 1.821-0.609 0.192 0 0.385 0.019 0.577 0.056 0.027 7e-3 0.055 0.015 0.085 0.027 0.039 0.017 0.094 0.035 0.189 0.067 0.072 0.024 0.143 0.049 0.204 0.074l0.039 0.018c0.341 0.185 0.657 0.401 0.957 0.662 0.288 0.273 0.494 0.49 0.601 0.63" fill="#ec1c24"/></g><g transform="translate(559.27 112.76)"><path d="m0 0 7e-3 8e-3c0.395 0.589 0.649 1.257 0.867 1.891l9e-3 0.031c0.102 0.427 0.226 0.986 0.29 1.515 0.016 0.165 0.025 0.344 0.025 0.548 0 0.453-0.044 0.903-0.08 1.265l-3e-3 0.04c-0.123 0.707-0.321 1.5-1.154 1.967l-0.087 0.04c-0.197 0.089-0.431 0.175-0.68 0.08-0.359-0.124-0.635-0.355-0.798-0.668-2e-3 -9e-3 -0.01-0.018-0.021-0.025-0.062-0.044-0.108-0.1-0.14-0.174-0.022-0.038-0.043-0.079-0.061-0.12l-0.026-0.052c-0.024-0.053-0.043-0.093-0.061-0.121-0.031-0.05-0.048-0.11-0.048-0.171l-2e-3 -0.088c-0.195-0.493-0.29-1.043-0.29-1.679 0-0.645 0.097-1.289 0.183-1.858 0.128-0.808 0.464-1.494 0.779-2.066 0.021-0.04 0.048-0.08 0.074-0.119l0.093-0.137 0.102 0.13c0.14 0.18 0.259 0.36 0.346 0.532l0.03 0.056-0.03 0.054c-0.22 0.42-0.489 0.985-0.595 1.663-0.087 0.575-0.174 1.169-0.174 1.747 0 0.572 0.087 1.062 0.265 1.496 0.019 0.04 0.028 0.083 0.028 0.126l6e-3 0.072c0.014 0.032 0.031 0.065 0.049 0.103 0.011 0.022 0.021 0.045 0.025 0.056 7e-3 0.012 0.014 0.022 0.029 0.031 0.078 0.056 0.134 0.127 0.159 0.212 0.053 0.121 0.14 0.216 0.255 0.281 0.037 0.02 0.087 0.022 0.128 4e-3l0.058-0.026c0.47-0.276 0.639-0.757 0.756-1.444 0.038-0.376 0.079-0.809 0.079-1.206 0-0.176-8e-3 -0.331-0.023-0.476-0.054-0.465-0.163-0.958-0.269-1.414l-9e-3 -0.031c-0.136-0.394-0.303-0.849-0.522-1.267-0.228-0.486-0.606-0.866-0.623-0.884-0.379-0.387-0.828-0.635-1.384-0.76-0.321-0.043-0.553-0.021-0.77 0.071-0.328 0.129-0.623 0.31-0.901 0.556l-0.095 0.082-0.078-0.097c-0.103-0.126-0.217-0.249-0.342-0.367l-0.098-0.092 0.102-0.086c0.33-0.279 0.692-0.497 1.072-0.646 0.293-0.122 0.579-0.158 0.826-0.158 0.161 0 0.308 0.015 0.427 0.033l0.039 6e-3c0.66 0.143 1.204 0.418 1.673 0.849 0.113 0.111 0.392 0.393 0.583 0.688z" fill="#ec1c24"/></g><g transform="translate(569.14 116.75)"><path d="m0 0c0 0.339-0.022 0.697-0.066 1.065l-8e-3 0.051c-0.12 0.696-0.256 1.484-0.982 2.039l-0.031 0.019c-0.342 0.217-0.763 0.271-1.115 0.139l-0.023-8e-3c-0.678-0.259-0.838-0.865-0.963-1.329-0.212-0.609-0.323-1.25-0.323-1.906 0-0.819 0.169-1.69 0.505-2.596 0.136-0.346 0.305-0.752 0.522-1.128l0.088-0.156 0.522 0.676-0.033 0.068c-0.112 0.223-0.212 0.461-0.334 0.772-0.305 0.822-0.458 1.618-0.458 2.364 0 0.597 0.096 1.169 0.295 1.728l8e-3 0.035c0.099 0.375 0.184 0.699 0.511 0.821 0.079 0.035 0.2 0.011 0.323-0.059 0.482-0.383 0.583-0.97 0.692-1.607l4e-3 -0.033c0.041-0.346 0.059-0.676 0.059-0.98 0-1.201-0.278-2.227-0.855-3.143l-0.618-0.805-0.011 1e-3 -0.188-0.215c-0.189-0.203-0.406-0.432-0.723-0.5-0.301-0.084-0.583-0.167-0.831-0.13-0.503 0.075-0.952 0.282-1.336 0.614l-0.089 0.077-0.511-0.567 0.097-0.08c0.486-0.406 1.043-0.652 1.703-0.751 0.087-0.013 0.171-0.018 0.254-0.018 0.342 0 0.657 0.089 0.946 0.169 0.54 0.121 0.884 0.484 1.112 0.727 3e-3 3e-3 0.013 0.014 0.039 0.023l0.031 0.011 0.537 0.667c0.829 1.11 1.25 2.437 1.25 3.945" fill="#ec1c24"/></g><g transform="translate(573.33 117.09)"><path d="m0 0c-0.212 0.188-0.685 0.097-0.683-0.3 0-0.722-0.135-1.46-0.403-2.192-0.371-1.015-1.116-2.228-2.095-2.583-0.515-0.19-1.06-0.121-1.619 0.202-0.113 0.058-0.189 0.126-0.284 0.213-0.048 0.045-0.099 0.089-0.152 0.133l-0.093 0.077-0.469-0.584 0.141-0.13c0.107-0.099 0.243-0.221 0.453-0.33 0.484-0.249 0.961-0.373 1.427-0.373 0.365 0 0.723 0.076 1.074 0.231 1.276 0.563 2.189 2.08 2.528 3.334 0.204 0.757 0.301 1.392 0.301 2 0 0.156-0.068 0.25-0.126 0.302" fill="#ec1c24"/></g><g transform="translate(564.76 116.27)"><path d="m0 0v1e-3c0.02 0.298 0.029 0.541 0.029 0.765 0 0.776-0.111 1.416-0.341 1.964-0.174 0.387-0.414 0.916-1.1 1.107l-0.033 0.01c-0.678 0.143-1.243-0.299-1.489-0.783-0.345-0.736-0.521-1.547-0.521-2.414 0-0.853 0.173-1.775 0.512-2.748 0.156-0.406 0.334-0.776 0.529-1.1l0.089-0.151 0.515 0.672-0.035 0.068c-0.117 0.221-0.228 0.47-0.33 0.735-0.313 0.892-0.471 1.741-0.471 2.523 0 0.765 0.152 1.479 0.451 2.124l6e-3 0.011c0.081 0.157 0.287 0.406 0.556 0.364 0.308-0.098 0.423-0.356 0.568-0.681 0.196-0.469 0.287-1.005 0.287-1.685 0-0.21-7e-3 -0.445-0.026-0.739-0.08-1.075-0.343-1.998-0.766-2.719-0.011-0.011-0.019-0.023-0.026-0.037v1e-3l-0.638-0.828-8e-3 -0.01c-0.17-0.174-0.362-0.335-0.57-0.486-0.482-0.322-1.072-0.412-1.582-0.235-0.313 0.124-0.607 0.299-0.874 0.521l-0.094 0.08-0.076-0.099c-0.123-0.156-0.26-0.303-0.334-0.38l-0.089-0.096 0.101-0.081c0.316-0.251 0.668-0.454 1.064-0.61 0.268-0.093 0.552-0.139 0.839-0.139 0.534 0 1.078 0.163 1.548 0.48 0.171 0.121 0.34 0.257 0.511 0.415l0.625 0.695c0.679 0.912 1.074 2.085 1.173 3.485" fill="#ec1c24"/></g><g transform="translate(554.95 112.8)"><path d="m0 0 0.028 0.029v0.011c0.768 1.023 1.158 2.352 1.158 3.951 0 0.371-0.023 0.759-0.062 1.143l-3e-3 0.037c-0.106 0.655-0.282 1.75-1.371 2.177l-0.043 0.014c-0.462 0.133-0.924-0.062-1.268-0.546-0.482-0.746-0.715-1.593-0.715-2.594 0-0.365 0.031-0.762 0.098-1.249 0.133-0.96 0.401-1.751 0.822-2.442 7e-3 -0.094 0.041-0.177 0.109-0.262l0.09-0.133 0.101 0.123c0.167 0.198 0.316 0.387 0.398 0.507l0.044 0.065-0.041 0.066c-0.364 0.586-0.599 1.294-0.722 2.163-0.06 0.452-0.089 0.817-0.089 1.152 0 0.877 0.195 1.61 0.604 2.244 0.072 0.098 0.157 0.177 0.227 0.21 0.037 0.017 0.082 0.016 0.119 1e-3 0.579-0.267 0.726-0.906 0.837-1.596 0.037-0.364 0.056-0.726 0.056-1.076 0-1.246-0.254-2.308-0.757-3.155l-0.035-0.017v-0.041c-0.134-0.217-0.513-0.666-0.643-0.818l-0.044-0.038v-5e-3c-0.239-0.235-0.512-0.449-0.805-0.632l-0.028-0.014c-0.036-0.014-0.082-0.029-0.128-0.045-0.057-0.019-0.113-0.038-0.197-0.066-0.604-0.107-1.191 0.023-1.636 0.358-0.083 0.065-0.164 0.132-0.242 0.202l-0.093 0.085-0.081-0.101c-0.094-0.12-0.206-0.248-0.334-0.381l-0.086-0.092 0.095-0.081c0.07-0.059 0.138-0.116 0.208-0.171 0.494-0.373 1.116-0.569 1.767-0.569 0.21 0 0.423 0.02 0.635 0.061 0.027 6e-3 0.055 0.015 0.085 0.026 0.039 0.018 0.094 0.036 0.189 0.067 0.072 0.025 0.143 0.05 0.202 0.074 0.026 0.01 0.048 0.023 0.062 0.031 0.313 0.193 0.6 0.409 0.86 0.645l0.028 0.024c0.073 0.061 0.36 0.31 0.601 0.658" fill="#ec1c24"/></g><g transform="translate(191.38 83.21)" fill="#fbfbff"><path d="m0 0 7.796-21.505h-15.629zm-9.763-26.766h19.483l9.618-26.47h5.595l-22.42 61.796-22.685-61.796h0.621z" fill="#fbfbff"/></g><g transform="translate(540.42 89.214)"><path d="m0 0-12.755 22.249 2.077 1.19 12.755-22.249z" fill="#778b96"/></g><g transform="translate(534.42 112.06)"><path d="m0 0c0-3.161-2.562-5.723-5.723-5.723-3.16 0-5.722 2.562-5.722 5.723s2.562 5.723 5.722 5.723c3.161 0 5.723-2.562 5.723-5.723" fill="#9fb9c6"/></g><g transform="translate(564.37 89.214)"><path d="m0 0-2.077 1.19 12.755 22.249 2.077-1.19z" fill="#778b96"/></g><g transform="translate(570.36 112.06)"><path d="m0 0c0-3.161 2.563-5.723 5.723-5.723 3.161 0 5.723 2.562 5.723 5.723s-2.562 5.723-5.723 5.723c-3.16 0-5.723-2.562-5.723-5.723" fill="#9fb9c6"/></g><g transform="translate(371.93 39.342)"><path d="m0 0h12.048c4.068 0 6.937 0.72 8.606 2.163s2.504 3.383 2.504 5.817c0 2.26-0.828 4.075-2.476 5.449-1.655 1.373-4.548 2.062-8.686 2.062h-11.996zm0 30.042h10.275c3.685 0 6.248 0.633 7.695 1.902 1.439 1.269 2.162 3.105 2.162 5.505 0 2.225-0.723 3.964-2.162 5.215-1.447 1.252-3.957 1.878-7.539 1.878h-10.431zm-23.836 29.991h44.229c7.372 0 13.029-1.826 16.979-5.477 3.943-3.651 5.918-8.171 5.918-13.561 0-4.52-1.408-8.397-4.225-11.631-1.877-2.156-4.625-3.859-8.241-5.111 5.494-1.321 9.535-3.592 12.125-6.808 2.591-3.216 3.888-7.257 3.888-12.125 0-3.964-0.922-7.528-2.765-10.692s-4.363-5.668-7.562-7.511c-1.983-1.147-4.973-1.982-8.971-2.503-5.32-0.696-8.85-1.043-10.588-1.043h-40.787z" fill="#5e6e78"/></g><g transform="translate(453.92 60.987)"><path d="m0 0c0-7.719 1.433-13.265 4.305-16.638 2.865-3.373 6.769-5.059 11.707-5.059 5.077 0 9.006 1.652 11.787 4.955 2.782 3.303 4.173 9.232 4.173 17.785 0 7.198-1.453 12.455-4.357 15.776-2.903 3.321-6.84 4.983-11.812 4.983-4.764 0-8.588-1.687-11.474-5.06-2.887-3.372-4.329-8.953-4.329-16.742m-23.627 0.104c0 12.483 3.477 22.202 10.431 29.156s16.638 10.431 29.051 10.431c12.727 0 22.532-3.418 29.416-10.25 6.885-6.833 10.328-16.402 10.328-28.711 0-8.936-1.506-16.266-4.513-21.985-3.008-5.721-7.351-10.171-13.04-13.353-5.682-3.181-12.768-4.77-21.252-4.77-8.623 0-15.762 1.373-21.412 4.12-5.651 2.747-10.23 7.093-13.741 13.039-3.512 5.946-5.268 13.387-5.268 22.323" fill="#5e6e78"/></g><g clip-path="url(#clipPath90)"><path d="m433.63 96.851 12.054-7.987c1.298 1.96 2.791 3.799 4.439 5.468l-10.287 10.16c-2.304-2.333-4.392-4.903-6.206-7.641m-5.337-10.518 13.563-5.011c0.814 2.205 1.847 4.342 3.07 6.351l-12.353 7.516c-1.704-2.801-3.144-5.781-4.28-8.856m-2.782-11.472 14.352-1.754c0.285 2.328 0.799 4.643 1.528 6.88l-13.745 4.485c-1.02-3.124-1.738-6.357-2.135-9.611m-0.055-11.821 14.369 1.626c-0.264 2.329-0.299 4.697-0.107 7.038l-14.41 1.191c-0.27-3.277-0.221-6.593 0.148-9.855m0.261-1.956c0.133-0.879 0.293-1.768 0.475-2.64 0.482-2.324 1.136-4.644 1.961-6.946l0.039-0.106 13.599 4.912-0.046 0.127c-0.58 1.617-1.049 3.283-1.396 4.95-0.129 0.625-0.244 1.26-0.339 1.89zm3.187-11.546c1.239-3.048 2.776-5.982 4.569-8.718l12.095 7.922c-1.281 1.957-2.38 4.057-3.268 6.241zm5.682-10.347c1.904-2.674 4.082-5.175 6.471-7.432l9.928 10.513c-1.707 1.612-3.261 3.398-4.621 5.307zm7.929-8.755c2.467-2.156 5.627-1.964 8.47-3.609l6.774 10.396c-2.036 1.179-3.965 2.559-5.731 4.101z" fill="url(#linearGradient100)"/></g><g clip-path="url(#clipPath110)"><path d="m442.35 116.92c-4.298-3.343-5.08-9.595-1.738-13.892l11.504-14.791c0.403-0.52 1.158-0.614 1.677-0.211l6.871 5.343c2.849 2.216 4.143 5.709 3.724 9.064-0.926-0.943-2.131-1.632-3.523-1.921-3.737-0.775-7.396 1.626-8.17 5.363-0.72 3.473 1.305 6.875 4.594 7.96l-1.048 1.347c-1.944 2.501-4.874 3.811-7.831 3.811-2.125 0-4.263-0.676-6.06-2.073" fill="url(#linearGradient120)"/></g><g transform="translate(371.93 72.999)"><path d="m0 0h5.137c1.843 0 3.125 0.317 3.848 0.951 0.72 0.635 1.081 1.553 1.081 2.753 0 1.112-0.361 1.982-1.081 2.607-0.723 0.626-1.979 0.939-3.769 0.939h-5.216z" fill="#9fb9c6"/></g><g transform="translate(371.93 43.048)"><path d="m0 0h5.137c1.843 0 3.125 0.316 3.848 0.951 0.72 0.634 1.081 1.552 1.081 2.752 0 1.112-0.361 1.982-1.081 2.608-0.723 0.626-1.979 0.939-3.769 0.939h-5.216z" fill="#9fb9c6"/></g><path d="m362.53 39.173h-5.723v44.867h5.723z" fill="#00adee"/><g transform="translate(516.48 99.374)"><path d="m0 0v-18.881h24.097v-44.212h23.627v44.212h24.096v18.881z" fill="#5e6e78"/></g><g transform="translate(499.65 74.105)"><path d="m0 0c0-2.105-1.707-3.813-3.813-3.813-2.105 0-3.812 1.708-3.812 3.813s1.707 3.813 3.812 3.813c2.106 0 3.813-1.708 3.813-3.813" fill="#8bc53f"/></g><g transform="translate(499.65 63.271)"><path d="m0 0c0-2.105-1.707-3.813-3.813-3.813-2.105 0-3.812 1.708-3.812 3.813s1.707 3.813 3.812 3.813c2.106 0 3.813-1.708 3.813-3.813" fill="#8bc53f"/></g><g transform="translate(496.71 39.692)"><path d="m0 0h-1.744c-0.985 0-1.792 0.807-1.792 1.792v11.959c0 0.985 0.807 1.792 1.792 1.792h1.744c0.985 0 1.792-0.807 1.792-1.792v-11.959c0-0.985-0.807-1.792-1.792-1.792" fill="#9fb9c6"/></g><g transform="translate(569.13 21.135)"><path d="m0 0h-33.467v6.204c0 2.874 2.33 5.205 5.205 5.205h23.058c2.874 0 5.204-2.331 5.204-5.205z" fill="#9fb9c6"/></g><g fill="#fbfbff"><g transform="translate(66.744 86.616)"><path d="m0 0h6.753c8.359 0 15.024-2.331 19.796-6.913 5.125-5.152 7.724-11.441 7.724-18.692 0-7.279-2.598-13.568-7.711-18.681-4.786-4.623-11.451-6.967-19.809-6.967h-6.753zm30.492-3.147c-5.605 5.634-13.576 8.521-23.691 8.579h-12.105v-62.075h12.105c10.114 0.058 18.084 2.929 23.689 8.534 6.171 6.171 9.3 13.743 9.3 22.504 0 8.703-3.128 16.259-9.298 22.458" fill="#fbfbff"/></g><g transform="translate(156.81 86.744)"><path d="m0 0v5.304h-31.987v-62.074h31.987v5.304h-26.683v23.081h26.683v5.304h-26.683v23.081z" fill="#fbfbff"/></g><g transform="translate(270.05 92.048)"><path d="m0 0v-54.03l-38.564 54.03h-5.737v-62.074h5.304v52.711l37.628-52.711h6.673v62.074z" fill="#fbfbff"/></g></g><g transform="translate(14.575 59.986)"><path d="m0 0c-0.029-0.139-0.054-0.272-0.053-0.414-1e-3 -0.142 0.024-0.275 0.053-0.414 0.021-0.091 0.036-0.178 0.07-0.266 0.066-0.181 0.167-0.342 0.287-0.5 0.023-0.029 0.029-0.064 0.053-0.092 0.012-0.014 0.029-0.019 0.042-0.032 0.051-0.057 0.079-0.129 0.138-0.181l34.357-30.164c0.811-0.711 2.046-0.631 2.758 0.18 0.712 0.81 0.632 2.045-0.18 2.758l-32.703 28.711 32.703 28.712c0.812 0.712 0.892 1.947 0.18 2.758-0.387 0.441-0.926 0.665-1.47 0.665-0.457 0-0.917-0.16-1.288-0.485l-34.357-30.164c-0.06-0.053-0.088-0.126-0.14-0.184-0.012-0.013-0.028-0.017-0.04-0.03-0.024-0.027-0.03-0.063-0.053-0.092-0.12-0.158-0.221-0.318-0.287-0.499-0.034-0.088-0.049-0.176-0.07-0.267" fill="#9fb9c6"/></g><g transform="translate(333.18 58.609)"><path d="m0 0c0.029 0.139 0.054 0.272 0.053 0.414 1e-3 0.142-0.024 0.275-0.053 0.414-0.021 0.091-0.036 0.178-0.07 0.266-0.066 0.181-0.167 0.342-0.287 0.5-0.023 0.029-0.029 0.064-0.053 0.092-0.012 0.014-0.029 0.019-0.042 0.032-0.051 0.057-0.079 0.129-0.138 0.181l-34.357 30.164c-0.811 0.711-2.046 0.631-2.758-0.18-0.712-0.81-0.631-2.045 0.18-2.758l32.703-28.711-32.703-28.712c-0.811-0.712-0.892-1.947-0.18-2.758 0.387-0.441 0.926-0.665 1.47-0.665 0.457 0 0.917 0.16 1.288 0.485l34.357 30.164c0.06 0.053 0.088 0.126 0.14 0.184 0.012 0.013 0.028 0.017 0.04 0.03 0.024 0.027 0.03 0.063 0.053 0.092 0.12 0.158 0.221 0.318 0.287 0.499 0.034 0.088 0.049 0.176 0.07 0.267" fill="#9fb9c6"/></g><g transform="translate(285.82 51.607)"><path d="m0 0-5.521-20.684h3.37l8.109 20.684z" fill="#ec1c24"/></g><g transform="translate(292.19 69.726)"><path d="m0 0c-0.807 0.807-1.811 1.199-3.064 1.199-1.14 0-2.084-0.392-2.888-1.199-0.809-0.806-1.201-1.785-1.201-2.994 0-1.183 0.388-2.137 1.189-2.913 0.807-0.793 1.754-1.176 2.9-1.176 1.26 0 2.266 0.384 3.073 1.172 0.802 0.783 1.19 1.737 1.19 2.917 0 1.206-0.392 2.186-1.199 2.994" fill="#ec1c24"/></g><g transform="translate(208 90.15)"><path d="m0 0 3.148-1.417-5.262-10.717-2.667 1.177zm7.93 0 3.147-1.417-5.262-10.717-2.667 1.177z" fill="#00adee"/></g><g transform="translate(120.07 61.508)"><path d="m0 0c-3.567-0.733-5.351-4.845-5.351-12.333v-1.215c0-11.182-2.91-17.102-8.729-17.76v2.277c3.947 1.037 5.921 6.401 5.921 16.091v1.593c0 5.768 1.163 9.627 3.491 11.575-2.328 1.948-3.491 5.806-3.491 11.574v1.594c0 9.69-1.974 15.053-5.921 16.091v2.277c5.819-0.658 8.729-6.578 8.729-17.761v-1.214c0-7.489 1.784-11.6 5.351-12.333z" fill="#00adee"/></g><g fill="#8bc53f"><path d="m140.93 48.768h23.169v2.504h-23.169z"/><path d="m141.03 41.637h22.967v2.504h-22.967z"/><path d="m227.19 21.207h47.355v-2.686h-47.355z"/></g><g transform="translate(163.75 9.99)"><path d="m0 0c-0.231 0-0.466 0.041-0.694 0.128-1.009 0.383-1.516 1.512-1.133 2.52l36.086 94.951c0.382 1.01 1.515 1.518 2.52 1.133 1.01-0.383 1.517-1.512 1.133-2.521l-36.085-94.95c-0.296-0.782-1.039-1.261-1.827-1.261" fill="#ec1c24"/></g></g></svg>
