<?xml version="1.0" encoding="UTF-8"?>
<svg width="409.55" height="386.65" version="1.1" viewBox="0 0 409.55 386.65" xml:space="preserve" xmlns="http://www.w3.org/2000/svg" xmlns:cc="http://creativecommons.org/ns#" xmlns:dc="http://purl.org/dc/elements/1.1/" xmlns:rdf="http://www.w3.org/1999/02/22-rdf-syntax-ns#"><metadata><rdf:RDF><cc:Work rdf:about=""><dc:format>image/svg+xml</dc:format><dc:type rdf:resource="http://purl.org/dc/dcmitype/StillImage"/><dc:title/></cc:Work></rdf:RDF></metadata><g transform="matrix(1.3333 0 0 -1.3333 -11.4 403.73)"><g transform="translate(205.9 261.44)" fill="#fbfbff"><path d="m0 0c-0.106 3.777 2.88 6.937 6.657 7.043 0.067 2e-3 0.131 3e-3 0.197 3e-3 1.757 0 3.419-0.66 4.702-1.872 1.331-1.257 2.092-2.957 2.142-4.786 0.046-1.628-0.507-3.122-1.426-4.326 0.656-0.11 1.308-0.227 1.956-0.385 0.851 1.385 1.334 3.018 1.285 4.761-0.135 4.775-4.153 8.494-8.907 8.419-4.776-0.135-8.554-4.131-8.419-8.908 0.049-1.742 0.617-3.349 1.543-4.684 0.641 0.196 1.288 0.35 1.938 0.498-0.985 1.149-1.622 2.61-1.668 4.237" fill="#fbfbff"/></g><g transform="translate(212.46 249.11)"><path d="m0 0c0.095-2e-3 0.187-0.014 0.283-0.014 0.118 0 0.238 1e-3 0.358 5e-3 0.177 5e-3 0.35 0.03 0.526 0.042z" fill="#1fdbdb"/></g><path d="m201.86 261.33c-0.083 2.91 0.973 5.679 2.972 7.794 2.001 2.116 4.705 3.326 7.614 3.409 0.104 2e-3 0.207 4e-3 0.31 4e-3 5.87 0 10.725-4.689 10.892-10.592 0.056-1.972-0.428-3.835-1.304-5.458 0.521-0.175 1.028-0.389 1.539-0.596 0.947 1.824 1.46 3.904 1.4 6.1-0.196 6.907-5.896 12.401-12.884 12.174-3.346-0.094-6.454-1.486-8.755-3.918-2.298-2.434-3.512-5.617-3.419-8.963 0.063-2.197 0.696-4.242 1.743-6.01 0.501 0.236 0.998 0.479 1.51 0.683-0.971 1.568-1.562 3.396-1.618 5.373" fill="#fbfbff"/><g transform="translate(213.98 254.17)"><path d="m0 0-0.186 6.568 2.894 0.082-0.044 1.562-7.35-0.207 0.044-1.563 2.894 0.082 0.186-6.568c-4.003-0.271-7.107-1.69-7.061-3.327 0.049-1.743 3.639-3.056 8.019-2.933 4.378 0.124 7.889 1.637 7.84 3.381-0.046 1.636-3.225 2.878-7.236 2.923" fill="#6bc4d8"/></g><g transform="translate(251.81 223.55)" fill="#fbfbff"><path d="m0 0c2.271 0.443 4.234 1.745 5.527 3.665 1.293 1.921 1.76 4.229 1.317 6.5-0.444 2.273-1.746 4.235-3.667 5.528-1.92 1.291-4.23 1.761-6.501 1.316-1.704-0.333-3.185-1.157-4.348-2.284 0.294-0.592 0.569-1.191 0.818-1.8 0.971 1.142 2.296 1.995 3.878 2.304 0.442 0.086 0.887 0.129 1.328 0.129 1.349 0 2.668-0.4 3.812-1.17 1.519-1.022 2.548-2.574 2.898-4.371 0.352-1.796-0.018-3.621-1.04-5.139-1.021-1.518-2.573-2.548-4.371-2.899-1.581-0.306-3.13-0.014-4.459 0.678-2e-3 -0.656-0.032-1.312-0.081-1.97 1.011-0.408 2.096-0.649 3.224-0.649 0.55 0 1.106 0.052 1.665 0.162" fill="#fbfbff"/></g><path d="m262.45 234.46c-1.326 6.785-7.931 11.222-14.703 9.898-2.104-0.411-4.02-1.335-5.619-2.673 0.321-0.464 0.628-0.936 0.919-1.416 1.421 1.232 3.117 2.115 5.012 2.485 0.704 0.138 1.405 0.204 2.094 0.204 5.106 0 9.678-3.615 10.694-8.81 1.152-5.9-2.711-11.635-8.609-12.787-1.893-0.372-3.805-0.227-5.585 0.38-0.087-0.541-0.191-1.08-0.312-1.618 1.221-0.392 2.491-0.601 3.78-0.601 0.809 0 1.62 0.078 2.43 0.236 6.783 1.324 11.222 7.92 9.899 14.702" fill="#fbfbff"/><g transform="translate(237.85 229.66)"><path d="m0 0c0.033-0.172 0.085-0.338 0.125-0.508l-0.2 1.028c0.026-0.173 0.041-0.347 0.075-0.52" fill="#1fdbdb"/></g><g transform="translate(250 228.04)"><path d="m0 0 1.534 0.3-1.41 7.216-1.533-0.3 0.555-2.841-6.45-1.26c-0.924 3.905-2.832 6.734-4.439 6.42-1.712-0.335-2.418-4.092-1.578-8.391 0.84-4.3 2.908-7.515 4.62-7.18 1.606 0.313 2.31 3.653 1.697 7.617l6.448 1.26z" fill="#6bc4d8"/></g><g transform="translate(262.67 149.65)"><path d="m0 0-1.188 6.71 0.957 0.169 1.189-6.709zm-4.888-0.867-1.192 6.709 1.957 0.347 1.192-6.709zm-4.899-0.868-1.189 6.709 1.959 0.347 1.189-6.709zm-4.894-0.869-1.192 6.709 1.958 0.348 1.192-6.709zm-4.898-0.869-1.19 6.709 1.959 0.348 1.19-6.709zm-4.895-0.868-1.192 6.709 1.958 0.348 1.192-6.709zm-4.898-0.868-1.19 6.709 1.96 0.348 1.189-6.71zm-4.894-0.869-1.192 6.71 1.957 0.347 1.192-6.709zm-4.244-0.319c-0.955 0.201-1.921 0.624-2.952 1.292l3.703 5.719c0.447-0.29 0.661-0.346 0.663-0.346zm-5.78 3.589c-0.687 0.664-1.244 1.273-1.567 1.64l5.114 4.502c0.244-0.277 0.666-0.738 1.186-1.24zm-4.266 6.954 6.207 2.811 0.821-1.811-6.206-2.811zm-2.051 4.529 6.206 2.812 0.82-1.811-6.206-2.812zm-1.233 2.719-0.82 1.812 6.206 2.811 0.82-1.813zm-2.873 6.341 6.206 2.811 0.82-1.813-6.206-2.81zm-2.053 4.53 6.206 2.81 0.822-1.811-6.207-2.811zm-2.052 4.529 6.206 2.81 0.821-1.811-6.207-2.811zm104.46-23.319c-2.088 2.25-4.494 2.104-7.009 0.602-1-0.597-2.194-1.488-3.194-1.368-6.577 0.792-13.16 1.633-19.669 2.848-3.84 0.716-4.517 2.631-1.945 5.702 3.136 3.744 6.637 7.223 10.291 10.466 1.067 0.946 3.278 1.16 4.822 0.89 3.32-0.579 6.218 0.758 6.962 3.775 0.712 2.888-1.078 5.68-4.09 6.38-2.954 0.684-5.449-1.008-6.284-4.206-0.235-0.905-0.356-2.208-0.979-2.585-5.769-3.5-11.572-6.957-17.535-10.104-0.995-0.524-3.315 0.02-4.141 0.898-2.244 2.389-1.808 10.954 0.305 13.439 2.086 2.455 2.09 5.668-0.199 7.554-2.25 1.853-4.728 2.053-7.038 0.04-2.261-1.973-2.324-5.181-0.304-7.599 0.597-0.717 1.598-1.522 1.577-2.264-0.173-6.134-0.717-10.112-1.184-16.231-0.155-2.046-0.616-4.149-3.464-4.431-2.313-0.23-22.121-2.944-29.718-4.661-4.831 9.183-11.666 23.109-16.526 33.86-1.089-1.531-2.143-2.998-3.179-4.455l2.613 1.181 0.4-0.886-4.11-1.857c-0.294-0.422-0.6-0.843-0.89-1.267-1.718-2.519-1.977-5.016-0.511-7.928 3.042-6.039 5.416-12.428 8.681-18.333 7.271-13.15 7.674-13.743 23.377-10.337 7.198 1.56 14.361 3.3 21.487 5.162 2.472 0.645 3.901-0.277 4.638-2.311 1.378-3.802 2.684-7.652 3.626-11.577 0.323-1.348-0.166-3.2-0.919-4.434-1.599-2.622-1.58-5.503 0.538-7.351 2.197-1.917 5.326-1.851 7.325 0.274 2.231 2.371 1.958 4.815 0.044 7.283-0.635 0.819-1.437 1.76-1.527 2.707-0.359 3.787-0.504 7.596-0.659 11.4-0.127 3.101 1.399 5.101 4.513 5.06 5.745-0.078 11.51-0.266 17.219-0.87 3.344-0.353 6.738-1.254 9.844-2.545 2.78-1.157 5.085-1.208 6.97 1.045 1.866 2.232 1.907 4.806-0.158 7.034" fill="#01677d"/></g><g transform="translate(162.85 212.93)"><path d="m0 0-0.184-0.093c0.061 0.031 0.122 0.062 0.184 0.093" fill="#778b97"/></g><g transform="translate(144.59 225.43)"><path d="m0 0 1.882-0.596-2.054-6.495-1.882 0.595zm4.705-1.489 1.882-0.595-2.054-6.496-1.882 0.596zm4.705-1.489 1.882-0.595-2.054-6.495-1.882 0.594zm4.705-1.489 1.883-0.595-2.055-6.496-1.882 0.596zm-20.176 0.699c-0.592 0.721-1.101 1.548-1.506 2.459l6.22 2.779c0.155-0.347 0.343-0.658 0.544-0.902zm-2.535 6.367c-0.038 0.386-0.056 0.769-0.056 1.148 0 0.172 6e-3 0.343 0.012 0.512l0.022 0.747 6.81-0.198-0.031-1.061c0-0.157 7e-3 -0.318 0.024-0.478zm0.118 7.337 6.81-0.192-0.056-1.973-6.81 0.191zm0.142 4.936 6.81-0.198-0.057-1.972-6.811 0.197zm0.14 4.931 6.81-0.192-0.056-1.974-6.809 0.193zm0.142 4.933 6.81-0.192-0.056-1.974-6.81 0.193zm0.113 3.931 6.81-0.188-0.027-0.973-6.81 0.189zm31.468-36.111 1.882-0.595-0.306-0.969-2.47-1.263zm-2.255 56.32c0.585 0.442 1.832 0.205 2.718 0.017 3.578-0.758 6.505 0.82 7.11 3.938 0.561 2.891-1.399 5.655-4.399 6.204-3.056 0.559-5.272-1.311-6.137-4.889-0.248-1.028-0.894-2.371-1.738-2.774-3.756-1.794-7.611-3.404-11.508-4.877-3.145-1.189-5.584 6e-3 -7.003 2.97-1.696 3.543-3.308 7.135-4.741 10.79-0.309 0.787 0.055 2.079 0.532 2.891 1.923 3.273 1.472 6.318-1.359 7.946-2.86 1.645-6.103 0.654-7.434-2.272-1.42-3.124 0.106-6.09 3.722-7.504 0.728-0.285 1.741-1.027 1.804-1.642 0.474-4.629 1.013-9.285 0.929-13.921-0.031-1.652-1.339-3.837-2.738-4.802-3.958-2.732-14.75-0.041-17.552 4.015-1.708 2.472-4.602 3.162-7.112 1.569-2.539-1.611-3.261-3.928-2.057-6.686 1.15-2.632 4.406-4.131 6.721-2.58 2.381 1.593 4.332 1.049 6.523 0.165 2.393-0.967 4.816-1.869 7.171-2.92 6.13-2.737 6.641-4.218 5.791-10.762-0.899-6.915-1.443-13.897-1.716-20.865-0.197-5.014 2.134-8.469 7.283-10.185 5.799-1.932 11.373-4.541 17.053-6.836 0.424-0.172 1.019-0.4 1.356-0.236 1.04 0.507 2.137 1.055 3.247 1.612l-0.97 0.307 2.054 6.496 1.882-0.596-1.772-5.604c3.521 1.783 7.204 3.692 10.444 5.312l-26.036 7.027c-1.837 0.447-2.735 1.067-2.766 3.082-0.109 7.241-0.273 14.484-0.601 21.718-0.149 3.296 1.449 4.295 4.271 3.699 4.314-0.912 8.627-1.907 12.835-3.208 1.43-0.442 2.766-1.737 3.748-2.961 1.912-2.381 5.168-3.332 7.47-1.64 2.349 1.726 3.11 4.101 1.794 6.824-1.327 2.75-4.273 3.574-7.234 2.244-0.946-0.424-2.123-1.123-2.953-0.879-3.175 0.934-6.347 1.996-9.338 3.4-3.31 1.553-3.959 4.24-1.303 6.759 3.716 3.525 7.908 6.559 12.009 9.654" fill="#01677d"/></g><g transform="translate(119.82 106.09)"><path d="m0 0c-0.193 0.025-0.375 0.081-0.573 0.092-4.389 0.257-8.155-3.094-8.411-7.483-0.168-2.879 1.232-5.466 3.443-6.995 1.16-0.802 2.53-1.327 4.04-1.416 4.389-0.256 8.155 3.095 8.411 7.484 0.245 4.191-2.813 7.778-6.91 8.318" fill="#043e40"/></g><g transform="translate(152.8 69.516)"><path d="m0 0c-0.082-0.069-0.162-0.143-0.24-0.22-0.573-0.565-1.049-1.335-1.524-2.108-0.044-0.071-0.088-0.143-0.131-0.214-0.118-0.191-0.237-0.383-0.357-0.569-0.177-0.276-0.358-0.543-0.548-0.791 0.273-0.208 0.54-0.439 0.806-0.679 0.12-0.108 0.24-0.219 0.36-0.329 0.128-0.118 0.256-0.237 0.384-0.356 0.086-0.079 0.171-0.157 0.257-0.234 0.043-0.039 0.086-0.077 0.129-0.115 0.086-0.076 0.172-0.152 0.259-0.225 0.39-0.331 0.788-0.629 1.203-0.85 0.184-0.099 0.372-0.182 0.564-0.247 0.096-0.032 0.193-0.06 0.292-0.083 0.539-0.123 1.081-0.235 1.621-0.355 0.076 2.896-0.632 5.635-1.943 8.014-0.156-0.074-0.318-0.136-0.474-0.21-0.235-0.111-0.453-0.256-0.658-0.429" fill="#231f20"/></g><g transform="translate(139.09 55.749)"><path d="m0 0c-0.265 0.085-0.529 0.171-0.793 0.257-0.265 0.085-0.529 0.171-0.794 0.256-0.112-0.105-0.224-0.209-0.335-0.315 0.662-0.293 1.371-0.46 2.096-0.545-0.057 0.117-0.117 0.231-0.174 0.347" fill="#231f20"/></g><g transform="translate(300.57 175.23)"><path d="m0 0c-1.562-4.446-6.435-6.785-10.882-5.222-4.446 1.563-6.784 6.435-5.222 10.882 1.563 4.446 6.435 6.785 10.882 5.222 4.448-1.563 6.785-6.435 5.222-10.882" fill="#043e40"/></g><g transform="translate(300.57 175.23)"><path d="m0 0c-1.562-4.446-6.435-6.785-10.882-5.222-4.446 1.563-6.784 6.435-5.222 10.882 1.563 4.446 6.435 6.785 10.882 5.222 4.448-1.563 6.785-6.435 5.222-10.882z" fill="none" stroke="#fff" stroke-miterlimit="10" stroke-width="2.07"/></g><g transform="translate(296.07 176.81)"><path d="m0 0c-0.689-1.962-2.839-2.993-4.802-2.304-1.962 0.69-2.993 2.839-2.303 4.802 0.689 1.962 2.838 2.993 4.801 2.304 1.962-0.69 2.993-2.839 2.304-4.802" fill="#fff"/></g><g transform="translate(276.71 122.51)"><path d="m0 0c-1.562-4.446-6.435-6.785-10.882-5.222-4.446 1.563-6.785 6.435-5.222 10.882 1.563 4.446 6.435 6.785 10.882 5.222s6.785-6.435 5.222-10.882" fill="#043e40"/></g><g transform="translate(276.71 122.51)"><path d="m0 0c-1.562-4.446-6.435-6.785-10.882-5.222-4.446 1.563-6.785 6.435-5.222 10.882 1.563 4.446 6.435 6.785 10.882 5.222s6.785-6.435 5.222-10.882z" fill="none" stroke="#fff" stroke-miterlimit="10" stroke-width="2.07"/></g><g transform="translate(272.22 124.1)"><path d="m0 0c-0.689-1.962-2.839-2.993-4.802-2.304-1.962 0.69-2.993 2.839-2.303 4.802 0.689 1.962 2.838 2.993 4.801 2.304 1.962-0.69 2.993-2.839 2.304-4.802" fill="#fff"/></g><g transform="translate(270.21 183.38)"><path d="m0 0c-1.562-4.447-6.435-6.785-10.881-5.223-4.447 1.564-6.785 6.436-5.223 10.882 1.563 4.447 6.435 6.785 10.882 5.223 4.448-1.564 6.785-6.436 5.222-10.882" fill="#043e40"/></g><g transform="translate(270.21 183.38)"><path d="m0 0c-1.562-4.447-6.435-6.785-10.881-5.223-4.447 1.564-6.785 6.436-5.223 10.882 1.563 4.447 6.435 6.785 10.882 5.223 4.448-1.564 6.785-6.436 5.222-10.882z" fill="none" stroke="#fff" stroke-miterlimit="10" stroke-width="2.07"/></g><g transform="translate(265.71 184.96)"><path d="m0 0c-0.689-1.962-2.839-2.994-4.801-2.305-1.963 0.691-2.994 2.84-2.304 4.802 0.689 1.962 2.839 2.994 4.801 2.305 1.962-0.691 2.994-2.84 2.304-4.802" fill="#fff"/></g><g transform="translate(314.2 147.06)"><path d="m0 0c-1.563-4.446-6.435-6.784-10.882-5.222-4.447 1.563-6.785 6.435-5.222 10.882 1.563 4.446 6.435 6.785 10.881 5.222 4.448-1.563 6.785-6.435 5.223-10.882" fill="#043e40"/></g><g transform="translate(314.2 147.06)"><path d="m0 0c-1.563-4.446-6.435-6.784-10.882-5.222-4.447 1.563-6.785 6.435-5.222 10.882 1.563 4.446 6.435 6.785 10.881 5.222 4.448-1.563 6.785-6.435 5.223-10.882z" fill="none" stroke="#fff" stroke-miterlimit="10" stroke-width="2.07"/></g><g transform="translate(309.7 148.64)"><path d="m0 0c-0.689-1.962-2.84-2.993-4.802-2.304-1.962 0.69-2.994 2.839-2.303 4.802 0.689 1.962 2.838 2.993 4.8 2.304 1.963-0.69 2.994-2.839 2.305-4.802" fill="#fff"/></g><g transform="translate(153 258.65)"><path d="m0 0c-2.084-5.929-8.579-9.046-14.508-6.962-5.929 2.083-9.046 8.579-6.962 14.507 2.083 5.929 8.579 9.046 14.508 6.963 5.928-2.084 9.045-8.579 6.962-14.508" fill="#6bc4d8"/></g><g transform="translate(145.91 266.14)"><path d="m0 0c2.057-2.011 2.093-5.309 0.082-7.365s-5.309-2.093-7.365-0.081c-2.056 2.011-2.093 5.308-0.082 7.364 2.011 2.057 5.309 2.093 7.365 0.082" fill="#fff"/></g><g transform="translate(277.77 151.57)"><path d="m0 0c-2.084-5.929-8.579-9.046-14.508-6.962-5.929 2.083-9.046 8.579-6.962 14.508 2.083 5.929 8.579 9.046 14.508 6.962s9.046-8.579 6.962-14.508" fill="#6bc4d8"/></g><g transform="translate(270.68 159.07)"><path d="m0 0c2.057-2.012 2.093-5.309 0.082-7.365-2.012-2.056-5.309-2.093-7.365-0.081-2.056 2.01-2.093 5.308-0.081 7.364 2.01 2.057 5.308 2.093 7.364 0.082" fill="#fff"/></g><g transform="translate(177.89 219.64)"><path d="m0 0c-1.794-1.101-3.589-2.202-5.41-3.261-1.105-0.641-2.213-1.277-3.323-1.909-1.355-0.77-2.713-1.535-4.072-2.299-0.508-0.285-1.015-0.57-1.523-0.855-1.05-0.589-2.099-1.179-3.148-1.77-0.707-0.398-1.413-0.798-2.118-1.199-1.258-0.715-2.554-1.379-3.849-2.044-0.12-0.061-0.24-0.123-0.36-0.184-0.126-0.065-0.253-0.13-0.38-0.195-0.175-0.091-0.351-0.181-0.526-0.272-0.194-0.101-0.387-0.201-0.58-0.303-0.171-0.09-0.343-0.181-0.513-0.272-0.144-0.077-0.287-0.154-0.429-0.231-0.231-0.125-0.461-0.251-0.689-0.379-0.24-0.134-0.479-0.269-0.716-0.408-1.187-0.69-2.335-1.43-3.409-2.265-0.832-0.646-1.632-1.316-2.404-2.008-0.385-0.346-0.764-0.698-1.136-1.055-0.248-0.237-0.493-0.478-0.734-0.721-0.363-0.363-0.719-0.732-1.068-1.106-0.35-0.373-0.693-0.752-1.03-1.135-0.112-0.128-0.224-0.256-0.335-0.385-0.192-0.223-0.381-0.446-0.569-0.672-0.058-0.07-0.117-0.14-0.175-0.212-1.376-1.667-2.649-3.412-3.84-5.214-0.094-0.143-0.187-0.285-0.28-0.427-0.185-0.284-0.368-0.571-0.55-0.859-0.272-0.43-0.54-0.865-0.804-1.302-2.202-3.642-4.137-7.476-5.983-11.358-0.156-0.327-0.311-0.654-0.465-0.982-0.308-0.657-0.613-1.315-0.916-1.974-1.059-2.307-2.087-4.628-3.111-6.95-0.158-0.357-0.316-0.715-0.473-1.073-0.721-1.634-1.441-3.267-2.17-4.897-1.66 3.912-2.529 7.717-3.483 11.499-0.323 1.283-0.644 2.568-0.97 3.851-0.057 0.224-0.114 0.448-0.171 0.673-0.065 0.257-0.131 0.513-0.197 0.769-0.205 0.802-0.413 1.603-0.626 2.402-0.721 2.716-1.489 5.418-2.366 8.079-0.051 0.156-0.103 0.312-0.156 0.468-0.104 0.313-0.21 0.625-0.318 0.937-0.107 0.311-0.217 0.622-0.328 0.932-0.197 0.548-0.4 1.095-0.608 1.64-0.054 0.142-0.109 0.283-0.164 0.425-0.091 0.235-0.184 0.472-0.278 0.707-0.184 0.458-0.373 0.915-0.566 1.371-0.193 0.455-0.391 0.908-0.595 1.36-0.136 0.3-0.274 0.6-0.414 0.9-0.211 0.448-0.426 0.894-0.649 1.34-0.222 0.444-0.449 0.886-0.683 1.326-0.078 0.146-0.157 0.293-0.236 0.439-0.397 0.731-0.811 1.454-1.245 2.171-0.143 0.239-0.295 0.473-0.449 0.707-0.974 1.478-2.152 2.871-3.438 4.136-0.3 0.296-0.606 0.584-0.917 0.864-0.159 0.145-0.32 0.286-0.481 0.427-0.35 0.303-0.704 0.597-1.062 0.879-0.455 0.359-0.928 0.643-1.415 0.845-0.109 0.045-0.218 0.085-0.327 0.12-0.074 0.024-0.148 0.046-0.222 0.065-0.394 0.107-0.788 0.151-1.173 0.127l-0.081-6e-3c-0.078-6e-3 -0.157-0.016-0.234-0.029-0.071-0.011-0.141-0.024-0.21-0.04-0.091-0.021-0.181-0.046-0.271-0.075-0.959-0.313-1.827-1.105-2.472-2.475-0.942-1.998-1.932-3.986-2.78-6.023-0.071-0.17-0.141-0.34-0.21-0.511-0.137-0.341-0.27-0.684-0.397-1.027-0.064-0.173-0.127-0.345-0.188-0.519-3.932-11.138-7.665-22.348-11.628-33.475-1.012-2.843-2.353-4.172-3.853-3.831-0.956 0.218-1.976 1.115-3.017 2.731-2.663 4.133-4.802 8.646-6.714 13.223-0.441 1.055-0.869 2.115-1.29 3.173-0.167 0.42-0.253 0.922-0.268 1.461-0.011 0.338 7e-3 0.69 0.048 1.045 0.017 0.143 0.037 0.285 0.061 0.429 0.014 0.08 0.028 0.159 0.045 0.239 0.026 0.135 0.055 0.269 0.088 0.402 0.017 0.07 0.036 0.14 0.055 0.211 0.057 0.21 0.121 0.416 0.193 0.619 0.238 0.672 0.553 1.283 0.919 1.75 2.469 3.137 5.069 6.174 7.727 9.161 0.886 0.996 1.778 1.986 2.674 2.973 1.195 1.316 2.396 2.626 3.597 3.935 0.206 0.224 0.524 0.375 0.897 0.474 0.034 8e-3 0.069 0.017 0.103 0.025 0.174 0.041 0.358 0.07 0.547 0.092 0.076 8e-3 0.152 0.014 0.228 0.02 0.498 0.037 1.013 0.019 1.447-0.024 1.583-0.157 3.043 0.123 4.235 0.758 0.088 0.048 0.175 0.096 0.26 0.147 0.061 0.036 0.122 0.074 0.181 0.113 0.065 0.042 0.13 0.084 0.193 0.129 0.04 0.029 0.08 0.057 0.119 0.086 0.079 0.059 0.157 0.118 0.232 0.181 0.038 0.031 0.076 0.062 0.113 0.095 1.035 0.894 1.731 2.139 1.927 3.644 0.101 0.781 0.067 1.534-0.089 2.238-0.01 0.05-0.022 0.1-0.034 0.15-0.405 1.642-1.468 3.001-2.965 3.796-0.226 0.12-0.463 0.227-0.709 0.321-0.54 0.206-1.125 0.344-1.746 0.404-1.38 0.135-2.628-0.149-3.662-0.775-0.041-0.024-0.082-0.05-0.123-0.076-0.732-0.47-1.35-1.114-1.826-1.904-0.027-0.043-0.053-0.088-0.079-0.133-0.127-0.224-0.244-0.458-0.348-0.704-0.021-0.049-0.042-0.099-0.062-0.149-0.039-0.099-0.078-0.201-0.114-0.303-0.198-0.568-0.337-1.184-0.411-1.841-0.084-0.763-0.1-1.681-0.338-2.386-0.02-0.061-0.042-0.118-0.07-0.186-0.022-0.051-0.045-0.101-0.07-0.149-0.048-0.094-0.103-0.182-0.165-0.262-0.029-0.038-0.06-0.075-0.092-0.11-1.032-1.09-2.065-2.18-3.104-3.265-1.299-1.355-2.607-2.702-3.934-4.03-0.265-0.266-0.53-0.53-0.797-0.794-1.601-1.584-3.229-3.137-4.9-4.642-0.192-0.173-0.411-0.318-0.649-0.44-0.096-0.049-0.195-0.095-0.296-0.137-0.742-0.31-1.636-0.453-2.533-0.592l-0.248-0.039c-0.223-0.035-0.444-0.07-0.663-0.109-0.323-0.058-0.639-0.121-0.941-0.2-0.087 0.332-0.197 0.668-0.315 1.006-0.054 0.152-0.109 0.305-0.165 0.459-0.06 0.164-0.12 0.328-0.18 0.491-0.039 0.109-0.078 0.219-0.117 0.328-0.019 0.054-0.037 0.108-0.056 0.163-0.038 0.109-0.073 0.217-0.108 0.325-0.154 0.489-0.275 0.97-0.32 1.438-0.02 0.208-0.024 0.414-9e-3 0.616 7e-3 0.101 0.019 0.201 0.036 0.301 0.326 1.873 0.667 3.744 1.023 5.612 0.165 0.867 0.334 1.734 0.506 2.599 0.21 1.062 0.426 2.124 0.646 3.183 0.374 1.802 0.76 3.6 1.16 5.395 0.207 0.929 0.417 1.856 0.631 2.782 0.213 0.927 0.43 1.853 0.65 2.778 0.029 0.123 0.069 0.246 0.118 0.369 0.033 0.081 0.07 0.163 0.11 0.245 0.041 0.081 0.086 0.162 0.135 0.243 0.048 0.081 0.099 0.161 0.155 0.241 0.027 0.04 0.055 0.079 0.084 0.119 0.048 0.066 0.098 0.13 0.15 0.195 0.042 0.051 0.085 0.104 0.13 0.156 0.056 0.064 0.114 0.129 0.174 0.192 0.045 0.049 0.091 0.097 0.139 0.145 0.036 0.037 0.073 0.073 0.111 0.109 0.09 0.087 0.184 0.173 0.279 0.256 0.085 0.074 0.173 0.147 0.262 0.219 0.029 0.023 0.059 0.047 0.088 0.07 0.055 0.042 0.108 0.083 0.163 0.123 0.343 0.254 0.697 0.475 1.036 0.649 0.381 0.195 0.738 0.416 1.071 0.658 0.062 0.045 0.123 0.091 0.183 0.137 0.042 0.033 0.085 0.067 0.126 0.1 0.126 0.102 0.247 0.206 0.364 0.313 0.039 0.037 0.078 0.073 0.116 0.109 0.19 0.183 0.369 0.374 0.536 0.572 0.033 0.039 0.066 0.079 0.098 0.119 0.065 0.081 0.128 0.162 0.188 0.245 0.061 0.083 0.119 0.166 0.176 0.251s0.111 0.171 0.164 0.257c0.104 0.174 0.201 0.351 0.288 0.531 0.066 0.136 0.126 0.273 0.182 0.412 0.111 0.278 0.202 0.561 0.271 0.85 0.024 0.097 0.044 0.194 0.063 0.291 0.027 0.146 0.049 0.292 0.065 0.441 0.109 0.985-0.031 2.007-0.464 3.004-1.275 2.939-4.668 4.356-7.715 3.222-1.04-0.387-1.895-0.989-2.539-1.741-0.032-0.037-0.064-0.075-0.095-0.113-0.071-0.088-0.139-0.178-0.206-0.269-0.134-0.188-0.259-0.384-0.37-0.587-0.024-0.043-0.047-0.086-0.069-0.13-0.043-0.083-0.084-0.167-0.133-0.275-0.059-0.131-0.114-0.265-0.163-0.4-0.068-0.186-0.126-0.375-0.175-0.569-0.191-0.749-0.243-1.553-0.143-2.381 9e-3 -0.08 0.02-0.161 0.033-0.242 8e-3 -0.054 0.016-0.107 0.027-0.161 0.076-0.431 0.193-0.867 0.352-1.305 0.065-0.176 0.136-0.36 0.209-0.547 0.026-0.067 0.052-0.135 0.079-0.204 0.013-0.036 0.028-0.073 0.042-0.11 0.156-0.407 0.305-0.824 0.4-1.228 0.069-0.292 0.109-0.578 0.1-0.846-2e-3 -0.067-7e-3 -0.133-0.015-0.197-0.013-0.097-0.033-0.192-0.061-0.283-0.321-1.026-0.643-2.051-0.969-3.077-0.316-0.995-0.633-1.989-0.953-2.983-0.49-1.524-0.985-3.046-1.483-4.567-0.324-0.987-0.65-1.974-0.976-2.961-0.17-0.511-0.34-1.024-0.51-1.537-0.669-2.01-1.344-4.02-2.023-6.028-0.339-1.004-0.68-2.008-1.021-3.011-0.544-1.602-1.355-2.516-2.346-2.809-0.064-0.019-0.129-0.035-0.194-0.049s-0.131-0.026-0.198-0.034-0.135-0.015-0.203-0.018c-0.034-2e-3 -0.069-3e-3 -0.103-4e-3 -0.042 0-0.085 0-0.128 2e-3 -0.062 1e-3 -0.124 5e-3 -0.186 0.011-0.036 3e-3 -0.071 7e-3 -0.107 0.012-0.072 8e-3 -0.144 0.02-0.217 0.034-0.036 7e-3 -0.072 0.014-0.109 0.022-0.039 9e-3 -0.079 0.019-0.119 0.03-0.069 0.017-0.139 0.037-0.216 0.061-0.075 0.024-0.15 0.05-0.226 0.078-0.038 0.015-0.076 0.029-0.114 0.045-0.498 0.201-1.018 0.505-1.554 0.904-1.568 1.171-3.133 2.348-4.694 3.53-0.911 0.689-1.82 1.381-2.728 2.074-0.888 0.679-1.774 1.358-2.658 2.041-1.335 1.031-2.666 2.068-3.991 3.112-0.662 0.522-1.324 1.045-1.984 1.57-0.152 0.121-0.282 0.278-0.396 0.46-0.032 0.052-0.063 0.106-0.092 0.162-0.103 0.195-0.19 0.412-0.264 0.639-0.042 0.13-0.08 0.264-0.115 0.399-0.104 0.405-0.179 0.824-0.243 1.2-0.042 0.242-0.092 0.478-0.152 0.709-0.015 0.058-0.03 0.114-0.046 0.171-0.143 0.51-0.33 0.987-0.555 1.429-0.052 0.1-0.104 0.198-0.159 0.294-0.027 0.047-0.055 0.094-0.083 0.141-0.072 0.12-0.147 0.236-0.225 0.35-0.026 0.037-0.051 0.073-0.077 0.109-0.391 0.545-0.85 1.014-1.365 1.394-0.041 0.029-0.082 0.059-0.124 0.088-0.374 0.261-0.776 0.477-1.2 0.643-0.047 0.018-0.095 0.036-0.142 0.053-0.955 0.344-2.017 0.436-3.132 0.232-2.227-0.407-3.969-2.077-4.647-4.163-0.179-0.555-0.283-1.138-0.301-1.733-4e-3 -0.165-2e-3 -0.33 6e-3 -0.497 3e-3 -0.051 6e-3 -0.103 0.01-0.155 0.016-0.205 0.043-0.412 0.08-0.618 0.035-0.19 0.077-0.375 0.126-0.555 0.023-0.084 0.047-0.167 0.073-0.249 0.032-0.103 0.067-0.205 0.104-0.304 0.066-0.174 0.139-0.342 0.218-0.504 0.034-0.07 0.069-0.14 0.105-0.208 0.219-0.406 0.482-0.776 0.784-1.107 0.168-0.183 0.348-0.355 0.54-0.514 0.191-0.159 0.393-0.307 0.606-0.441 0.086-0.053 0.172-0.105 0.261-0.155 0.044-0.024 0.088-0.049 0.133-0.072 0.09-0.048 0.182-0.094 0.275-0.137 0.047-0.021 0.093-0.043 0.14-0.063 0.095-0.041 0.191-0.081 0.288-0.119 0.195-0.074 0.396-0.139 0.602-0.196 0.3-0.084 0.611-0.148 0.933-0.194 0.064-9e-3 0.128-0.018 0.193-0.026 0.222-0.026 0.449-0.043 0.68-0.051 0.289-0.01 0.584-6e-3 0.885 0.012 0.12 8e-3 0.241 0.018 0.363 0.03 0.182 0.018 0.367 0.042 0.553 0.07 0.113 0.018 0.23 0.03 0.35 0.039 0.24 0.016 0.492 0.015 0.749-5e-3 0.385-0.029 0.78-0.097 1.156-0.203 0.125-0.035 0.248-0.074 0.368-0.117 0.44-0.159 0.839-0.372 1.144-0.635 3.574-3.082 7.05-6.293 10.389-9.63 0.223-0.222 0.445-0.446 0.666-0.67 0.572-0.577 1.13-1.168 1.68-1.767 2.078-2.265 4.027-4.657 6.058-6.968-0.023-0.276-0.047-0.554-0.07-0.83-0.023-0.277-0.046-0.555-0.069-0.831-5.555-2.48-11.093-4.997-16.674-7.418-1.314-0.569-2.541-0.943-3.893-0.652-0.184 0.041-0.37 0.093-0.56 0.159-0.131 0.046-0.265 0.098-0.4 0.158-0.115 0.051-0.231 0.106-0.348 0.167-0.018 9e-3 -0.036 0.018-0.053 0.028-0.189 0.101-0.381 0.214-0.578 0.343-0.122 0.081-0.247 0.154-0.411 0.241-0.126 0.066-0.255 0.124-0.385 0.176-0.048 0.019-0.097 0.038-0.146 0.057-0.046 0.016-0.093 0.032-0.14 0.046-0.046 0.016-0.093 0.03-0.14 0.043-0.094 0.028-0.189 0.051-0.284 0.072-0.047 0.01-0.095 0.02-0.142 0.029-1.512 0.278-3.128-0.213-4.412-1.196-0.029-0.023-0.058-0.044-0.086-0.068-0.049-0.038-0.098-0.078-0.145-0.118-0.034-0.027-0.066-0.055-0.099-0.084-0.137-0.12-0.27-0.246-0.398-0.377-0.108-0.111-0.211-0.225-0.31-0.343-0.365-0.435-0.673-0.918-0.908-1.439-0.174-0.388-0.303-0.787-0.397-1.229-0.02-0.095-0.037-0.191-0.052-0.287-9e-3 -0.06-0.018-0.122-0.025-0.182-0.023-0.185-0.038-0.37-0.044-0.555-2e-3 -0.078-3e-3 -0.155-3e-3 -0.233 0-0.089 2e-3 -0.179 6e-3 -0.268 4e-3 -0.067 8e-3 -0.135 0.014-0.202 7e-3 -0.087 0.015-0.174 0.026-0.26 0.012-0.102 0.027-0.204 0.044-0.305 0.062-0.355 0.152-0.704 0.271-1.043 0.049-0.141 0.104-0.28 0.162-0.416 0.072-0.169 0.152-0.334 0.239-0.497 0.036-0.068 0.074-0.136 0.114-0.204 0.025-0.045 0.052-0.089 0.078-0.132 0.07-0.113 0.143-0.223 0.219-0.332 0.061-0.086 0.124-0.171 0.189-0.254 0.057-0.073 0.115-0.143 0.174-0.212 0.134-0.159 0.277-0.309 0.427-0.452 0.119-0.114 0.242-0.222 0.371-0.327 0.027-0.022 0.055-0.045 0.084-0.066 0.098-0.076 0.198-0.149 0.301-0.221 0.355-0.242 0.741-0.449 1.153-0.611 0.047-0.019 0.094-0.036 0.141-0.053 0.049-0.017 0.098-0.034 0.148-0.051 0.091-0.029 0.183-0.056 0.276-0.081 0.356-0.095 0.726-0.156 1.102-0.183 0.176-0.014 0.355-0.019 0.533-0.018 0.071 0 0.142 2e-3 0.212 4e-3 0.183 8e-3 0.367 0.023 0.549 0.044 0.096 0.012 0.192 0.024 0.287 0.04 0.189 0.03 0.377 0.067 0.562 0.112 0.203 0.05 0.404 0.109 0.6 0.176 0.099 0.033 0.196 0.07 0.292 0.107 0.53 0.208 1.024 0.48 1.457 0.81 0.054 0.041 0.106 0.083 0.159 0.126 0.061 0.051 0.122 0.103 0.181 0.156 0.048 0.043 0.094 0.088 0.139 0.133 0.331 0.325 0.607 0.692 0.826 1.124 0.166 0.337 0.283 0.698 0.34 1.084 0.191 1.28 0.617 2.128 1.208 2.72 0.046 0.046 0.092 0.09 0.14 0.132 0.142 0.128 0.293 0.243 0.451 0.346 0.106 0.07 0.214 0.134 0.326 0.195 0.449 0.241 0.947 0.416 1.478 0.564 0.332 0.093 0.678 0.175 1.032 0.257 2.236 0.519 4.481 1.057 6.745 1.416 0.263 0.042 0.528 0.081 0.793 0.118 0.259 0.036 0.518 0.071 0.777 0.101 11.83 1.392 16.864-1.341 22.284-11.944 0.364-0.712 0.716-1.431 1.062-2.152 0.607-1.263 1.199-2.532 1.818-3.787 0.088-0.179 0.177-0.357 0.267-0.536 0.358-0.715 0.727-1.423 1.115-2.121 0.593-1.07 1.216-2.139 1.891-3.169 0.12-0.184 0.242-0.365 0.366-0.546 0.137-0.2 0.275-0.399 0.416-0.596 0.089-0.125 0.18-0.249 0.271-0.372 0.366-0.491 0.747-0.97 1.147-1.429 2.209-2.54 4.573-3.977 6.859-4.307 0.128-0.019 0.256-0.033 0.384-0.045 0.563-0.051 1.122-0.033 1.67 0.052 0.149 0.023 0.297 0.05 0.444 0.084 0.137 0.031 0.274 0.065 0.41 0.104 2.274 0.661 4.351 2.538 5.965 5.638 0.011 0.019 0.02 0.04 0.031 0.059 0.14 0.271 0.278 0.542 0.413 0.816 0.073 0.147 0.145 0.294 0.216 0.442 0.148 0.308 0.294 0.618 0.437 0.93 0.332 0.725 0.65 1.458 0.954 2.198 0.066 0.16 0.131 0.32 0.196 0.482 0.123 0.305 0.244 0.613 0.363 0.921 0.118 0.307 0.235 0.616 0.35 0.925 0.173 0.465 0.342 0.931 0.507 1.399 0.055 0.157 0.109 0.314 0.164 0.471 0.162 0.465 0.32 0.932 0.475 1.4 0.054 0.162 0.108 0.325 0.162 0.488 0.462 1.41 0.901 2.827 1.33 4.239 0.138 0.452 0.268 0.905 0.394 1.36 0.083 0.302 0.165 0.606 0.244 0.911 1.214 4.667 2.744 22.61 9.308 13.363 0.028-0.04 0.057-0.078 0.084-0.118 0.2-0.291 0.389-0.591 0.569-0.897 0.074-0.125 0.146-0.252 0.217-0.379 0.294-0.533 0.564-1.082 0.817-1.642 0.099-0.219 0.195-0.439 0.289-0.66 0.242-0.569 0.469-1.145 0.69-1.717 0.649-1.684 1.284-3.372 1.906-5.063 0.312-0.846 0.62-1.694 0.924-2.54 0.305-0.848 0.607-1.697 0.906-2.546 1.194-3.397 2.338-6.808 3.436-10.231 0.138-0.428 0.274-0.855 0.41-1.284 0.407-1.285 0.809-2.571 1.204-3.859 0.311-1.016 1.084-4.658 5.64-7.027 0.628-0.327 1.246-0.674 1.805-1.108 1.138-0.884 2.272-1.773 3.402-2.667 0.704-0.558 1.406-1.116 2.107-1.678 2.103-1.684 4.19-3.388 6.263-5.111 1.036-0.862 2.068-1.729 3.095-2.601 0.343-0.29 0.685-0.581 1.027-0.873 2.734-2.335 5.439-4.707 8.112-7.119 0.668-0.603 1.334-1.209 1.998-1.817 0.664-0.609 1.326-1.22 1.986-1.833 1.321-1.228 2.633-2.465 3.936-3.714 0.442-0.424 0.885-0.856 1.317-1.299 0.168-0.172 0.334-0.346 0.498-0.522 0.419-0.449 0.821-0.91 1.199-1.387 0.089-0.114 0.178-0.23 0.266-0.346 0.213-0.284 0.417-0.574 0.608-0.871 0.027-0.041 0.051-0.082 0.076-0.123 5.997-9.625-11.146-4.11-15.92-3.429-5.9 0.84-13.547 2.107-19.396 0.601 3.714-1.187 6.698-3.801 6.639-7.952-0.049-3.494-2.441-6.679-5.814-7.59-2.547-0.689-4.853-0.109-6.651 1.135 0.162-0.302 0.316-0.607 0.491-0.903 0.078-0.132 0.157-0.262 0.238-0.393 0.127-0.206 0.257-0.41 0.389-0.615 0.119-0.183 0.239-0.366 0.362-0.547 0.691-1.021 1.436-2.008 2.193-2.968 0.495-0.627 1.006-1.241 1.527-1.848 0.13-0.151 0.261-0.303 0.392-0.453 0.918-1.056 1.861-2.092 2.792-3.138 0.53-0.598 1.058-1.2 1.574-1.81 1.775-2.099 3.154-4.013 4.179-5.849 3.385-6.06 2.745-11.241-1.638-19.091-0.044-0.078-0.079-0.15-0.123-0.228-0.129-0.228-0.261-0.453-0.394-0.678-0.136-0.23-0.273-0.459-0.414-0.686-1.206-1.95-2.569-3.814-3.91-5.676-0.212-0.295-0.421-0.581-0.635-0.853-0.343-0.432-0.696-0.825-1.092-1.145-0.098-0.079-0.2-0.156-0.305-0.226-0.157-0.106-0.321-0.2-0.493-0.282-0.058-0.027-0.117-0.054-0.176-0.078-0.163-0.067-0.339-0.115-0.518-0.158-0.674-0.163-1.468-0.158-2.457 0.093-0.378 0.096-0.757 0.127-1.163 0.102-0.452-0.032-0.897-0.146-1.324-0.324-0.059-0.026-0.118-0.051-0.177-0.078-0.072-0.035-0.143-0.07-0.214-0.108-0.059-0.031-0.119-0.063-0.178-0.098-0.471-0.271-0.913-0.623-1.309-1.03-0.072-0.074-0.143-0.15-0.211-0.228-0.138-0.156-0.27-0.318-0.394-0.487-0.113-0.153-0.22-0.311-0.321-0.474-0.051-0.082-0.099-0.165-0.147-0.249-0.091-0.16-0.175-0.323-0.252-0.49-0.03-0.064-0.058-0.129-0.086-0.194-0.07-0.164-0.134-0.331-0.19-0.499-0.12-0.357-0.206-0.722-0.256-1.087-0.013-0.095-0.023-0.19-0.031-0.286-5e-3 -0.052-8e-3 -0.103-0.011-0.156-2e-3 -0.05-4e-3 -0.1-5e-3 -0.151-0.01-0.442 0.032-0.877 0.119-1.299 0.025-0.122 0.054-0.244 0.087-0.363 9e-3 -0.035 0.019-0.069 0.028-0.103 0.047-0.158 0.1-0.315 0.159-0.468 0.074-0.194 0.158-0.384 0.251-0.568 0.041-0.082 0.084-0.162 0.129-0.243 0.051-0.091 0.106-0.183 0.162-0.272 0.07-0.112 0.144-0.223 0.221-0.33 0.031-0.042 0.061-0.083 0.092-0.124 0.047-0.063 0.095-0.123 0.145-0.184 0.116-0.142 0.237-0.28 0.365-0.412 0.103-0.106 0.211-0.21 0.321-0.31 0.267-0.241 0.554-0.458 0.858-0.652 0.087-0.055 0.175-0.108 0.265-0.159 0.075-0.043 0.152-0.084 0.229-0.124 0.06-0.031 0.12-0.061 0.181-0.091 0.081-0.038 0.163-0.074 0.245-0.109 0.072-0.03 0.144-0.06 0.216-0.087 0.173-0.065 0.349-0.124 0.529-0.174 0.059-0.016 0.119-0.033 0.178-0.048 0.095-0.022 0.189-0.043 0.323-0.069 0.406-0.076 0.823-0.112 1.249-0.101 0.571 0.016 1.136 0.114 1.677 0.283 0.147 0.046 0.293 0.097 0.436 0.153 0.171 0.067 0.338 0.142 0.502 0.222 0.039 0.019 0.078 0.038 0.116 0.058 0.055 0.029 0.11 0.058 0.165 0.088 0.032 0.018 0.064 0.035 0.095 0.054 1.403 0.805 2.48 2.106 2.807 3.607 0.01 0.048 0.019 0.096 0.028 0.144 0.018 0.096 0.033 0.191 0.044 0.289 5e-3 0.048 0.011 0.097 0.014 0.145 5e-3 0.049 8e-3 0.099 0.011 0.148 2e-3 0.052 4e-3 0.104 5e-3 0.157 2e-3 0.14-3e-3 0.281-0.018 0.465-0.013 0.142-0.033 0.286-0.06 0.431-0.044 0.23-0.074 0.451-0.094 0.664-2e-3 0.02-4e-3 0.04-5e-3 0.06-0.011 0.132-0.018 0.26-0.02 0.386-3e-3 0.147 0 0.291 9e-3 0.431 0.012 0.199 0.036 0.391 0.07 0.577 0.038 0.203 0.112 0.384 0.174 0.571 0.351 1.068 1.051 1.924 1.929 2.768 2.141 2.056 4.3 4.093 6.463 6.126 2.159 2.027 4.322 4.049 6.48 6.078-1.999 0.885-3.605 2.666-4.142 5.073-0.664 2.974 0.705 6.162 3.323 7.721 4.186 2.492 9.475 0.313 10.733-4.323 0.79-2.906-0.424-6.088-2.891-7.814-1.568-1.098-3.291-1.395-4.927-1.202 1.3-2.647 2.683-5.257 3.916-7.931 0.056-0.121 0.105-0.245 0.161-0.366 0.281-0.619 0.56-1.239 0.821-1.866 0.121-0.291 0.241-0.582 0.36-0.873 1.79-4.369 3.41-8.815 4.874-13.301 0.082-0.252 0.118-0.539 0.133-0.835 8e-3 -0.153 0.019-0.306 0.011-0.465-6e-3 -0.128-0.018-0.257-0.033-0.386-0.048-0.387-0.138-0.778-0.259-1.144-0.082-0.244-0.177-0.478-0.285-0.693-0.054-0.107-0.111-0.211-0.171-0.307-0.098-0.161-0.191-0.322-0.278-0.484-0.059-0.108-0.114-0.215-0.168-0.324-0.133-0.269-0.25-0.54-0.353-0.81-0.081-0.217-0.153-0.433-0.214-0.649-0.018-0.062-0.035-0.125-0.052-0.187-0.081-0.315-0.142-0.627-0.181-0.936-0.027-0.212-0.043-0.423-0.05-0.631-3e-3 -0.104-4e-3 -0.208-3e-3 -0.31 1e-3 -0.052 2e-3 -0.104 4e-3 -0.155 5e-3 -0.102 0.011-0.205 0.02-0.305 5e-3 -0.051 0.01-0.102 0.016-0.153 0.011-0.1 0.026-0.2 0.043-0.299 0.041-0.248 0.099-0.492 0.171-0.73 0.074-0.237 0.163-0.47 0.267-0.696 0.188-0.406 0.428-0.792 0.719-1.151 0.048-0.059 0.098-0.119 0.15-0.176 0.12-0.137 0.246-0.269 0.381-0.396 0.078-0.073 0.158-0.144 0.24-0.214 0.066-0.055 0.133-0.109 0.202-0.163 0.147-0.115 0.302-0.225 0.463-0.331 0.177-0.114 0.357-0.218 0.541-0.312 0.045-0.024 0.092-0.046 0.138-0.069 0.15-0.072 0.302-0.137 0.456-0.197 0.556-0.214 1.134-0.344 1.715-0.392 2.186-0.179 4.399 0.783 5.635 2.68 0.618 0.95 0.942 1.966 0.994 2.979 3e-3 0.05 4e-3 0.101 6e-3 0.152 0.01 0.455-0.033 0.909-0.13 1.355-0.01 0.049-0.022 0.099-0.034 0.149-0.152 0.621-0.407 1.225-0.758 1.797-0.024 0.037-0.048 0.075-0.072 0.112-0.074 0.116-0.152 0.231-0.235 0.344-0.033 0.043-0.065 0.087-0.098 0.13-0.068 0.088-0.138 0.175-0.21 0.259-0.321 0.379-0.69 0.736-1.104 1.065-0.046 0.036-0.093 0.072-0.141 0.108-0.189 0.144-0.387 0.283-0.594 0.413-0.323 0.205-0.68 0.436-1.014 0.689-0.111 0.084-0.219 0.171-0.323 0.26-0.181 0.156-0.348 0.32-0.489 0.49-0.04 0.049-0.077 0.098-0.113 0.147-0.124 0.175-0.219 0.356-0.271 0.543-0.028 0.097-0.054 0.193-0.081 0.289-0.202 0.715-0.403 1.431-0.602 2.148-0.451 1.625-0.894 3.253-1.33 4.882-0.289 1.079-0.574 2.16-0.857 3.24-0.29 1.105-0.577 2.211-0.861 3.317-0.417 1.624-0.828 3.249-1.236 4.874-0.068 0.274-0.139 0.546-0.208 0.819-0.162 0.648-0.24 1.246-0.234 1.783 1e-3 0.041 1e-3 0.082 3e-3 0.123 3e-3 0.08 8e-3 0.159 0.015 0.237 7e-3 0.081 0.016 0.154 0.026 0.224 6e-3 0.041 0.012 0.081 0.019 0.121 7e-3 0.037 0.014 0.073 0.021 0.109 0.016 0.073 0.033 0.144 0.052 0.213 0.01 0.035 0.02 0.07 0.031 0.104 0.019 0.059 0.04 0.118 0.062 0.176 0.015 0.04 0.031 0.079 0.048 0.118 0.014 0.032 0.028 0.063 0.043 0.093 0.03 0.062 0.061 0.123 0.095 0.18 0.034 0.059 0.069 0.115 0.107 0.171 0.039 0.055 0.079 0.108 0.121 0.159 0.652 0.802 1.809 1.196 3.497 1.08 0.424-0.029 0.848-0.058 1.272-0.088 0.633-0.044 1.266-0.087 1.9-0.131 2.114-0.15 4.228-0.303 6.342-0.461 0.538-0.041 1.076-0.082 1.615-0.123 1.036-0.08 2.071-0.161 3.107-0.244 1.596-0.127 3.191-0.257 4.786-0.393 1.04-0.089 2.079-0.18 3.119-0.273 0.932-0.083 1.863-0.169 2.794-0.255 0.139-0.013 0.28-0.026 0.419-0.039 0.095-8e-3 0.19-0.027 0.284-0.052 0.063-0.018 0.126-0.038 0.188-0.063 0.251-0.095 0.498-0.242 0.743-0.419 0.334-0.243 0.662-0.542 0.977-0.843 0.029-0.027 0.058-0.054 0.086-0.082 0.053-0.05 0.105-0.101 0.157-0.151 0.145-0.139 0.286-0.275 0.425-0.403 0.341-0.316 0.699-0.592 1.067-0.829 0.046-0.03 0.092-0.059 0.138-0.087 0.07-0.043 0.141-0.084 0.212-0.124 0.725-0.41 1.485-0.674 2.251-0.787 0.197-0.03 0.395-0.048 0.592-0.058 0.144-7e-3 0.288-8e-3 0.432-4e-3 0.119 4e-3 0.212 9e-3 0.306 0.016 0.048 4e-3 0.097 9e-3 0.146 0.013 0.23 0.026 0.458 0.064 0.684 0.117 0.11 0.025 0.219 0.053 0.327 0.085l0.142 0.044c0.941 0.304 1.826 0.861 2.585 1.67 2.223 2.373 2.224 6.05 5e-3 8.362-0.751 0.783-1.64 1.307-2.592 1.588-0.142 0.042-0.286 0.078-0.431 0.109-0.097 0.021-0.195 0.039-0.292 0.055-0.293 0.047-0.591 0.073-0.889 0.078-0.15 2e-3 -0.3-1e-3 -0.45-0.01-0.2-0.011-0.401-0.031-0.601-0.061-0.1-0.015-0.201-0.032-0.301-0.051-0.1-0.02-0.2-0.042-0.299-0.066-0.1-0.024-0.199-0.05-0.299-0.079-0.049-0.014-0.099-0.029-0.148-0.045-0.247-0.077-0.493-0.168-0.734-0.273-0.049-0.022-0.097-0.043-0.145-0.066-0.145-0.066-0.288-0.137-0.43-0.213-0.047-0.026-0.094-0.052-0.141-0.079-0.066-0.038-0.132-0.077-0.197-0.116-0.353-0.214-0.694-0.458-1.02-0.733-0.292-0.246-0.632-0.487-0.999-0.706-0.058-0.034-0.117-0.069-0.176-0.102-0.033-0.018-0.066-0.037-0.099-0.055-0.1-0.054-0.201-0.107-0.303-0.157-0.113-0.055-0.229-0.109-0.344-0.159-0.048-0.02-0.096-0.041-0.143-0.059-0.062-0.026-0.125-0.05-0.188-0.074-0.081-0.03-0.163-0.058-0.244-0.086-0.065-0.021-0.13-0.041-0.195-0.059-0.079-0.023-0.158-0.044-0.237-0.064-0.047-0.01-0.095-0.021-0.142-0.031-0.051-0.011-0.1-0.018-0.15-0.027-0.044-8e-3 -0.089-0.017-0.132-0.023-0.094-0.013-0.186-0.023-0.277-0.03-0.091-6e-3 -0.18-9e-3 -0.269-7e-3 -0.132 2e-3 -0.261 0.013-0.385 0.033-0.938 0.154-1.876 0.312-2.813 0.472-0.937 0.161-1.874 0.325-2.81 0.492-1.811 0.324-3.619 0.662-5.425 1.013-1.063 0.206-2.125 0.417-3.186 0.633-0.865 0.176-1.729 0.354-2.592 0.536-1.32 0.278-2.635 0.573-3.952 0.867-0.539 0.12-1.082 0.232-1.621 0.356-0.098 0.022-0.195 0.05-0.292 0.083-0.192 0.064-0.38 0.147-0.564 0.246-0.415 0.221-0.812 0.519-1.202 0.85-0.087 0.073-0.173 0.149-0.259 0.225-0.043 0.038-0.086 0.076-0.129 0.115-0.086 0.077-0.171 0.155-0.257 0.234-0.128 0.119-0.256 0.238-0.385 0.356-0.119 0.11-0.239 0.221-0.359 0.329-0.266 0.24-0.534 0.471-0.807 0.679 0.19 0.248 0.372 0.515 0.549 0.791 0.12 0.186 0.239 0.378 0.357 0.569 0.043 0.071 0.087 0.143 0.131 0.214 0.475 0.773 0.951 1.543 1.524 2.108 0.078 0.077 0.158 0.151 0.24 0.22 0.205 0.173 0.423 0.318 0.657 0.429 0.157 0.074 0.318 0.136 0.475 0.21 1.88 0.879 3.779 1.719 5.698 2.518 0.346 0.145 0.694 0.287 1.041 0.43 1.737 0.711 3.484 1.397 5.236 2.072 1.034 0.399 2.069 0.79 3.104 1.183 0.369 0.14 0.737 0.281 1.106 0.421 0.045 0.016 0.09 0.031 0.137 0.043 0.098 0.026 0.2 0.043 0.306 0.051 0.054 4e-3 0.108 6e-3 0.164 6e-3 0.073 0 0.135-2e-3 0.198-6e-3 0.742-0.053 1.596-0.393 2.331-0.609 0.636-0.186 1.258-0.296 1.857-0.332 0.109-6e-3 0.218-0.01 0.325-0.012 0.054-1e-3 0.107-1e-3 0.161-1e-3 0.266 2e-3 0.528 0.019 0.784 0.05 0.051 7e-3 0.102 0.014 0.153 0.021 0.912 0.134 1.745 0.457 2.461 0.951 0.04 0.027 0.079 0.055 0.118 0.083 0.976 0.713 1.72 1.754 2.129 3.079 0.183 0.596 0.281 1.188 0.3 1.768 9e-3 0.262 1e-3 0.522-0.023 0.777-0.155 1.687-0.999 3.192-2.357 4.2-0.041 0.03-0.082 0.061-0.124 0.09-0.59 0.415-1.271 0.738-2.031 0.945-1.464 0.401-2.882 0.24-4.106-0.371-0.044-0.021-0.087-0.044-0.131-0.066-0.086-0.046-0.171-0.095-0.256-0.145-0.042-0.025-0.084-0.051-0.125-0.077-0.066-0.041-0.13-0.084-0.194-0.128-0.058-0.04-0.116-0.081-0.174-0.123-0.08-0.059-0.158-0.121-0.236-0.184-1.046-0.855-1.869-2.093-2.334-3.614-0.128-0.417-0.309-0.899-0.536-1.344-0.035-0.069-0.071-0.136-0.107-0.203-0.093-0.166-0.191-0.324-0.296-0.468-0.02-0.03-0.042-0.058-0.063-0.085-0.139-0.182-0.291-0.326-0.449-0.445-0.108-0.081-0.218-0.158-0.334-0.2-1.671-0.603-3.343-1.205-5.019-1.8-1.256-0.445-2.514-0.886-3.774-1.319-2.833-0.973-5.686-1.879-8.552-2.734-0.961-0.287-1.917-0.59-2.882-0.858-0.572-0.158-1.257-0.212-1.97-0.173-0.215 0.013-0.43 0.033-0.645 0.061-0.072 0.01-0.144 0.02-0.216 0.031-0.135 0.022-0.271 0.046-0.404 0.073-0.08 0.017-0.16 0.034-0.239 0.052-0.14 0.033-0.28 0.069-0.418 0.109-0.344 0.099-0.675 0.219-0.983 0.358-0.491 0.224-0.92 0.496-1.244 0.812-0.814 0.796-1.626 1.601-2.43 2.415-0.247 0.251-0.487 0.511-0.733 0.763-3.215 3.305-6.286 6.771-8.873 10.534-1.089 1.585-1.522 2.872-1.354 3.838 0.263 1.516 2.007 2.239 5.02 2.076 11.795-0.639 23.576-1.523 35.37-2.195 0.183-0.01 0.366-0.018 0.55-0.026 0.367-0.016 0.734-0.025 1.102-0.031 0.184-2e-3 0.367-3e-3 0.551-3e-3 2.207-4e-3 4.424 0.142 6.631 0.24 1.512 0.066 2.577 0.56 3.236 1.325 0.062 0.071 0.12 0.145 0.174 0.221 0.041 0.058 0.081 0.117 0.118 0.177 0.042 0.068 0.081 0.136 0.118 0.206l0.036 0.072c0.17 0.346 0.282 0.726 0.336 1.132 0.011 0.075 0.019 0.152 0.025 0.229 0.01 0.114 0.014 0.231 0.015 0.348 2e-3 0.528-0.077 1.073-0.233 1.632-0.122 0.439-0.256 0.879-0.401 1.319-0.066 0.203-0.136 0.405-0.206 0.608-0.14 0.395-0.288 0.788-0.444 1.18-0.671 1.675-1.502 3.298-2.489 4.768-0.156 0.233-0.315 0.462-0.479 0.687-0.494 0.677-1.002 1.338-1.522 1.986-0.105 0.129-0.209 0.258-0.315 0.387-0.315 0.386-0.635 0.767-0.959 1.143-0.325 0.377-0.653 0.748-0.986 1.115-0.221 0.245-0.445 0.488-0.67 0.729-0.338 0.363-0.679 0.72-1.025 1.075-0.345 0.353-0.694 0.704-1.047 1.05-0.18 0.178-0.362 0.355-0.544 0.531-0.109 0.105-0.219 0.21-0.329 0.314-0.421 0.402-0.848 0.801-1.278 1.194-0.244 0.222-0.488 0.443-0.733 0.663-0.246 0.219-0.492 0.438-0.741 0.655-0.124 0.108-0.248 0.217-0.373 0.325-2.116 1.835-4.311 3.586-6.539 5.301-0.655 0.504-1.314 1.005-1.973 1.504-0.212 0.16-0.423 0.319-0.635 0.478-0.185 0.14-0.369 0.28-0.555 0.418-1.058 0.796-2.119 1.588-3.177 2.381-4.547 3.409-8.742 7.274-13.403 10.533-3.575 2.501-7.193 4.946-10.764 7.436 1.053 0.539 2.544 0.879 4.596 1.156 0.1 0.014 0.202 0.027 0.306 0.04 0.289 0.038 0.579 0.074 0.868 0.109 0.429 0.052 0.858 0.101 1.288 0.149 0.303 0.033 0.607 0.065 0.91 0.098 0.273 0.028 0.547 0.056 0.821 0.084 0.309 0.031 0.619 0.062 0.929 0.091 3.04 0.296 6.086 0.549 9.113 0.946 5.538 0.726 10.956 1.861 16.235 3.437 0.353 0.106 0.704 0.212 1.055 0.321 4.559 1.417 9.013 3.167 13.349 5.272 1.001 0.485 1.995 0.989 2.983 1.514 1.037 0.549 2.045 1.131 3.023 1.747 0.287 0.18 0.571 0.363 0.853 0.549 0.075 0.05 0.151 0.1 0.226 0.15 0.15 0.101 0.299 0.202 0.447 0.304 0.087 0.059 0.173 0.119 0.259 0.178 0.136 0.095 0.27 0.19 0.405 0.285 0.706 0.504 1.395 1.027 2.065 1.568 0.031 0.025 0.062 0.05 0.092 0.075 0.294 0.239 0.585 0.482 0.872 0.728 0.021 0.017 0.041 0.035 0.061 0.051 4.149 3.57 7.551 7.89 10.098 12.95 2.319 4.607 5.445 8.39 9.031 11.759z" fill="#01677d"/></g><g transform="translate(240 224.5)"><path d="m0 0c-0.039 0.135-0.076 0.271-0.113 0.405-0.011 0.039-0.022 0.078-0.032 0.116-0.028 0.105-0.055 0.208-0.082 0.312-8e-3 0.035-0.018 0.07-0.027 0.105-0.033 0.133-0.065 0.266-0.098 0.399-5e-3 0.026-0.012 0.054-0.018 0.081-0.026 0.107-0.05 0.215-0.074 0.322-0.01 0.043-0.02 0.085-0.029 0.128-0.022 0.104-0.045 0.207-0.066 0.311-6e-3 0.031-0.014 0.062-0.02 0.093-0.026 0.129-0.051 0.257-0.076 0.386l-0.023 0.126-0.05 0.276c-8e-3 0.046-0.017 0.094-0.024 0.141-0.019 0.108-0.037 0.215-0.054 0.322l-0.021 0.129c-0.015 0.105-0.031 0.209-0.047 0.315-7e-3 0.053-0.014 0.105-0.022 0.159-0.012 0.079-0.022 0.159-0.032 0.239-7e-3 0.054-0.015 0.107-0.021 0.16-0.015 0.119-0.029 0.237-0.043 0.355-6e-3 0.054-0.011 0.108-0.017 0.163l-0.024 0.222c-7e-3 0.063-0.012 0.126-0.018 0.188-7e-3 0.068-0.013 0.137-0.019 0.205-7e-3 0.075-0.013 0.152-0.019 0.228-8e-3 0.096-0.016 0.193-0.023 0.29-5e-3 0.069-0.01 0.139-0.014 0.209-4e-3 0.056-7e-3 0.114-0.011 0.171-4e-3 0.072-9e-3 0.145-0.013 0.217-3e-3 0.051-5e-3 0.103-8e-3 0.155-6e-3 0.137-0.011 0.275-0.017 0.412-1e-3 0.043-3e-3 0.086-5e-3 0.129-2e-3 0.081-5e-3 0.161-7e-3 0.242-1e-3 0.042-2e-3 0.085-3e-3 0.127-7e-3 0.278-0.01 0.556-0.01 0.834v0.089c1e-3 0.091 1e-3 0.18 2e-3 0.27 0 0.027 1e-3 0.053 1e-3 0.079 3e-3 0.293 0.01 0.586 0.02 0.88 1e-3 0.022 2e-3 0.044 2e-3 0.067 4e-3 0.098 8e-3 0.197 0.011 0.297 7e-3 0.158 0.014 0.316 0.023 0.475 0 0.01 1e-3 0.021 2e-3 0.03 8e-3 0.149 0.015 0.297 0.025 0.446 1e-3 0.018 2e-3 0.037 4e-3 0.056 9e-3 0.139 0.019 0.279 0.028 0.418l6e-3 0.079c0.01 0.132 0.02 0.263 0.031 0.395 3e-3 0.034 5e-3 0.067 7e-3 0.101 0.011 0.124 0.022 0.249 0.034 0.374 3e-3 0.039 6e-3 0.078 0.01 0.117 0.011 0.121 0.023 0.242 0.035 0.363 3e-3 0.042 7e-3 0.084 0.012 0.126 0.012 0.123 0.026 0.246 0.038 0.368 4e-3 0.04 8e-3 0.08 0.013 0.12 0.018 0.161 0.035 0.323 0.055 0.485 0.272 2.364 0.045 4.489-0.615 6.323-0.219 0.611-0.487 1.19-0.799 1.734-0.313 0.545-0.67 1.055-1.071 1.529-0.359 0.425-0.754 0.821-1.179 1.187-0.182 0.155-0.369 0.306-0.562 0.45-0.052 0.038-0.102 0.076-0.155 0.114-0.124 0.09-0.25 0.177-0.379 0.262-0.301 0.199-0.614 0.386-0.94 0.559-0.166 0.089-0.336 0.175-0.509 0.257-0.111 0.052-0.223 0.103-0.335 0.153-0.203 0.089-0.41 0.173-0.62 0.253-0.843 0.319-1.747 0.563-2.707 0.728-0.262 0.045-0.529 0.084-0.798 0.117-0.2 0.025-0.403 0.046-0.607 0.064-0.53 0.046-1.075 0.071-1.634 0.072-0.14 0-0.282 2e-3 -0.424 4e-3 -0.04 1e-3 -0.08 1e-3 -0.121 2e-3 -0.02 0-0.04 1e-3 -0.06 1e-3 -0.428 7e-3 -0.861 0.017-1.293 0.011-0.046-1e-3 -0.092-2e-3 -0.138-2e-3l-0.117-3e-3c-0.054-2e-3 -0.11-4e-3 -0.165-6e-3l-0.138-6e-3c-0.037-2e-3 -0.074-4e-3 -0.11-6e-3 -0.062-4e-3 -0.125-9e-3 -0.187-0.014-0.029-2e-3 -0.056-5e-3 -0.084-7e-3 -0.071-6e-3 -0.141-0.014-0.211-0.021-0.023-3e-3 -0.045-6e-3 -0.068-9e-3 -0.074-9e-3 -0.149-0.019-0.223-0.031-0.011-1e-3 -0.023-3e-3 -0.035-5e-3 -0.071-0.012-0.142-0.024-0.211-0.038-0.015-2e-3 -0.029-5e-3 -0.043-8e-3 -0.076-0.015-0.15-0.032-0.224-0.05l-0.047-0.012c-0.075-0.019-0.148-0.039-0.222-0.061-0.012-4e-3 -0.024-8e-3 -0.037-0.012-0.077-0.024-0.153-0.049-0.228-0.077-0.652-0.242-1.302-0.454-1.953-0.64-0.257-0.074-0.514-0.144-0.772-0.21-0.181-0.046-0.363-0.09-0.545-0.133-1.09-0.253-2.18-0.434-3.275-0.554-0.182-0.02-0.364-0.038-0.547-0.055-0.618-0.056-1.236-0.092-1.856-0.112-0.229-7e-3 -0.458-0.012-0.688-0.014-0.801-9e-3 -1.604 0.01-2.411 0.054-0.33 0.018-0.661 0.041-0.992 0.067-0.077 6e-3 -0.155 0.012-0.232 0.019-0.297 0.025-0.594 0.053-0.892 0.084-0.408 0.042-0.818 0.089-1.229 0.142-0.748 0.096-1.499 0.209-2.254 0.336-0.527 0.088-1.102 0.126-1.697 0.116-0.171-3e-3 -0.342-9e-3 -0.515-0.02-0.691-0.043-1.397-0.149-2.077-0.316-1.273-0.312-2.451-0.838-3.253-1.563-0.095-0.086-0.19-0.172-0.284-0.26-0.031-0.029-0.062-0.057-0.092-0.086-0.064-0.059-0.127-0.118-0.19-0.178l-0.109-0.105c-0.057-0.055-0.113-0.109-0.169-0.164l-0.117-0.114c-0.053-0.053-0.106-0.104-0.159-0.157-0.04-0.041-0.08-0.081-0.12-0.121-0.051-0.052-0.102-0.103-0.153-0.155-0.041-0.041-0.081-0.083-0.121-0.124l-0.15-0.156c-0.04-0.043-0.081-0.085-0.121-0.128-0.049-0.051-0.098-0.103-0.147-0.155-0.04-0.043-0.081-0.087-0.121-0.13-0.048-0.052-0.097-0.105-0.145-0.158-0.039-0.044-0.08-0.087-0.119-0.13-0.049-0.055-0.098-0.109-0.147-0.164-0.038-0.043-0.076-0.085-0.114-0.128-0.052-0.058-0.103-0.118-0.155-0.176-0.034-0.04-0.069-0.079-0.104-0.119-0.082-0.095-0.164-0.191-0.246-0.286-0.041-0.05-0.083-0.099-0.125-0.149s-0.084-0.1-0.126-0.15c-0.044-0.053-0.088-0.107-0.131-0.16-0.039-0.047-0.078-0.094-0.116-0.141-0.045-0.055-0.09-0.11-0.134-0.166-0.038-0.046-0.074-0.092-0.111-0.138l-0.135-0.17c-0.036-0.045-0.071-0.09-0.107-0.135-0.045-0.058-0.09-0.117-0.136-0.175-0.034-0.044-0.068-0.088-0.102-0.132-0.046-0.06-0.092-0.12-0.137-0.18-0.032-0.043-0.065-0.085-0.097-0.128-0.047-0.062-0.093-0.124-0.139-0.187-0.03-0.04-0.06-0.08-0.089-0.119-0.049-0.066-0.097-0.132-0.145-0.198-0.026-0.034-0.051-0.069-0.075-0.104-0.053-0.071-0.104-0.143-0.156-0.214-0.014-0.021-0.03-0.042-0.044-0.063-0.266-0.373-0.527-0.75-0.78-1.131-0.013-0.019-0.026-0.037-0.039-0.056-0.054-0.081-0.107-0.163-0.161-0.245-0.017-0.026-0.035-0.053-0.052-0.08-0.052-0.078-0.102-0.157-0.154-0.236-0.018-0.029-0.037-0.059-0.056-0.088-0.05-0.078-0.1-0.157-0.15-0.235-0.018-0.029-0.037-0.059-0.055-0.088-0.051-0.08-0.101-0.159-0.15-0.239-0.017-0.028-0.035-0.055-0.052-0.084-0.05-0.081-0.1-0.162-0.15-0.244-0.016-0.025-0.031-0.05-0.046-0.076-0.052-0.084-0.103-0.169-0.154-0.255-0.011-0.018-0.022-0.036-0.033-0.055-0.055-0.092-0.11-0.184-0.165-0.278-0.088-0.15-0.175-0.299-0.261-0.449-0.016-0.028-0.032-0.055-0.048-0.083-0.087-0.153-0.174-0.305-0.259-0.458-0.544-0.976-1.024-1.987-1.466-3.018-7e-3 -0.017-0.014-0.034-0.021-0.051-0.108-0.252-0.213-0.505-0.318-0.759-0.053-0.132-0.105-0.263-0.158-0.395-0.054-0.137-0.108-0.272-0.161-0.409-0.101-0.257-0.2-0.515-0.298-0.774-0.806-2.125-1.562-4.282-2.443-6.375l32.958-31.827 0.24 0.182c0.097 0.073 0.193 0.147 0.288 0.221 0.202 0.153 0.404 0.307 0.605 0.462 0.112 0.087 0.223 0.172 0.336 0.259 0.186 0.144 0.372 0.287 0.557 0.432 0.116 0.089 0.229 0.178 0.344 0.267 0.186 0.145 0.372 0.291 0.558 0.436 0.109 0.085 0.218 0.171 0.328 0.257 0.199 0.155 0.397 0.311 0.595 0.468 0.094 0.075 0.189 0.149 0.283 0.223 0.248 0.197 0.495 0.392 0.742 0.588 0.043 0.034 0.085 0.069 0.128 0.102 0.303 0.241 0.605 0.482 0.908 0.724 8e-3 6e-3 0.016 0.012 0.023 0.018 0.292 0.233 0.584 0.467 0.875 0.701l0.15 0.12c0.259 0.208 0.517 0.416 0.775 0.623 0.036 0.03 0.074 0.059 0.11 0.088 1.477 1.189 2.952 2.381 4.43 3.567l0.024 0.018c0.655 0.525 1.31 1.048 1.968 1.57 0.148 0.118 0.298 0.239 0.451 0.356 0.031 0.024 0.061 0.047 0.093 0.07 0.061 0.047 0.123 0.092 0.186 0.137 0.063 0.044 0.126 0.087 0.189 0.129 0.193 0.124 0.391 0.233 0.599 0.315 1.606 0.638 2.969 1.523 4.09 2.59 0.673 0.641 1.26 1.347 1.759 2.105 2.219 3.367 2.725 7.751 1.531 11.903" fill="#01677d"/></g><g transform="translate(221.42 227.04)"><path d="m0 0c-7.811-8.626-18.587-11.593-18.587-11.593s1.887 11.017 9.696 19.643c7.811 8.625 18.587 11.592 18.587 11.592s-1.886-11.017-9.696-19.642" fill="#043e40"/></g><g transform="translate(220.26 228.09)"><path d="m0 0c-5.77-6.372-13.729-8.564-13.729-8.564s1.393 8.138 7.163 14.51c5.769 6.372 13.729 8.564 13.729 8.564s-1.393-8.139-7.163-14.51" fill="#6bc4d8"/></g><g transform="translate(180.87 218.71)"><path d="m0 0-1.392 1.361 4.763 4.87 1.391-1.361zm3.479-3.403-1.393 1.361 4.763 4.87 1.392-1.361zm3.479-3.404-1.391 1.362 4.763 4.87 1.391-1.362zm3.479-3.403-1.392 1.361 4.763 4.87 1.392-1.361zm3.48-3.402-1.391 1.36 4.762 4.871 1.392-1.361zm3.479-3.404-1.392 1.362 4.763 4.87 1.391-1.362zm3.479-3.403-1.393 1.361 4.763 4.87 1.392-1.361zm3.479-3.403-1.391 1.361 4.763 4.87 1.391-1.361zm3.479-3.404-1.392 1.362 4.763 4.871 1.392-1.361z" fill="#043e40"/></g><g transform="translate(177.57 247.48)"><path d="m0 0c-1.562-4.447-6.435-6.785-10.882-5.222s-6.785 6.434-5.222 10.882c1.563 4.446 6.435 6.784 10.882 5.222 4.447-1.563 6.785-6.435 5.222-10.882" fill="#043e40"/></g><g transform="translate(177.57 247.48)"><path d="m0 0c-1.562-4.447-6.435-6.785-10.882-5.222s-6.785 6.434-5.222 10.882c1.563 4.446 6.435 6.784 10.882 5.222 4.447-1.563 6.785-6.435 5.222-10.882z" fill="none" stroke="#fff" stroke-miterlimit="10" stroke-width="2.07"/></g><g transform="translate(173.07 249.06)"><path d="m0 0c-0.689-1.962-2.839-2.994-4.801-2.304-1.963 0.689-2.994 2.839-2.304 4.802 0.689 1.961 2.839 2.993 4.801 2.304 1.962-0.69 2.993-2.84 2.304-4.802" fill="#fff"/></g><g transform="translate(28.264 208.53)"><path d="m0 0c-1.563-4.446-6.435-6.784-10.882-5.222-4.447 1.563-6.785 6.435-5.222 10.882s6.435 6.785 10.882 5.222 6.785-6.435 5.222-10.882" fill="#043e40"/></g><g transform="translate(28.264 208.53)"><path d="m0 0c-1.563-4.446-6.435-6.784-10.882-5.222-4.447 1.563-6.785 6.435-5.222 10.882s6.435 6.785 10.882 5.222 6.785-6.435 5.222-10.882z" fill="none" stroke="#fff" stroke-miterlimit="10" stroke-width="2.07"/></g><g transform="translate(23.765 210.11)"><path d="m0 0c-0.689-1.963-2.839-2.994-4.801-2.305-1.963 0.69-2.994 2.839-2.304 4.802 0.689 1.962 2.838 2.993 4.801 2.304 1.962-0.69 2.993-2.839 2.304-4.801" fill="#fff"/></g><g transform="translate(179.33 278.66)"><path d="m0 0c-1.562-4.447-6.435-6.785-10.882-5.222s-6.785 6.434-5.222 10.882c1.563 4.446 6.435 6.785 10.882 5.222s6.785-6.435 5.222-10.882" fill="#043e40"/></g><g transform="translate(179.33 278.66)"><path d="m0 0c-1.562-4.447-6.435-6.785-10.882-5.222s-6.785 6.434-5.222 10.882c1.563 4.446 6.435 6.785 10.882 5.222s6.785-6.435 5.222-10.882z" fill="none" stroke="#fff" stroke-miterlimit="10" stroke-width="2.07"/></g><g transform="translate(174.84 280.24)"><path d="m0 0c-0.689-1.962-2.839-2.994-4.801-2.304-1.963 0.689-2.994 2.839-2.304 4.802 0.689 1.961 2.839 2.993 4.801 2.304 1.962-0.69 2.993-2.84 2.304-4.802" fill="#fff"/></g><g transform="translate(26.172 168.03)"><path d="m0 0c-1.563-4.447-6.435-6.785-10.882-5.222s-6.785 6.435-5.222 10.882c1.563 4.446 6.435 6.784 10.882 5.222 4.447-1.563 6.785-6.435 5.222-10.882" fill="#043e40"/></g><g transform="translate(26.172 168.03)"><path d="m0 0c-1.563-4.447-6.435-6.785-10.882-5.222s-6.785 6.435-5.222 10.882c1.563 4.446 6.435 6.784 10.882 5.222 4.447-1.563 6.785-6.435 5.222-10.882z" fill="none" stroke="#fff" stroke-miterlimit="10" stroke-width="2.07"/></g><g transform="translate(21.673 169.61)"><path d="m0 0c-0.689-1.962-2.839-2.993-4.801-2.304-1.963 0.69-2.994 2.839-2.305 4.801 0.69 1.963 2.839 2.994 4.802 2.305 1.962-0.69 2.993-2.839 2.304-4.802" fill="#fff"/></g><g transform="translate(147 290.4)"><path d="m0 0c-1.562-4.447-6.435-6.785-10.881-5.222-4.448 1.562-6.786 6.434-5.223 10.881s6.435 6.785 10.882 5.222c4.447-1.562 6.785-6.434 5.222-10.881" fill="#043e40"/></g><g transform="translate(147 290.4)"><path d="m0 0c-1.562-4.447-6.435-6.785-10.881-5.222-4.448 1.562-6.786 6.434-5.223 10.881s6.435 6.785 10.882 5.222c4.447-1.562 6.785-6.434 5.222-10.881z" fill="none" stroke="#fff" stroke-miterlimit="10" stroke-width="2.07"/></g><g transform="translate(142.5 291.98)"><path d="m0 0c-0.689-1.962-2.839-2.994-4.801-2.304-1.963 0.689-2.994 2.839-2.304 4.801 0.689 1.962 2.839 2.994 4.801 2.304 1.962-0.689 2.993-2.839 2.304-4.801" fill="#fff"/></g><g transform="translate(71.386 225.77)"><path d="m0 0c-1.563-4.446-6.435-6.785-10.882-5.222s-6.785 6.435-5.222 10.882c1.563 4.446 6.435 6.785 10.882 5.222s6.784-6.435 5.222-10.882" fill="#043e40"/></g><g transform="translate(71.386 225.77)"><path d="m0 0c-1.563-4.446-6.435-6.785-10.882-5.222s-6.785 6.435-5.222 10.882c1.563 4.446 6.435 6.785 10.882 5.222s6.784-6.435 5.222-10.882z" fill="none" stroke="#fff" stroke-miterlimit="10" stroke-width="2.07"/></g><g transform="translate(66.887 227.35)"><path d="m0 0c-0.689-1.962-2.839-2.993-4.801-2.304-1.962 0.69-2.994 2.839-2.304 4.802 0.689 1.962 2.839 2.993 4.801 2.304 1.962-0.69 2.994-2.839 2.304-4.802" fill="#fff"/></g><g transform="translate(121.77 264.39)"><path d="m0 0c-1.562-4.447-6.435-6.785-10.882-5.222s-6.785 6.435-5.222 10.882 6.435 6.785 10.882 5.222 6.785-6.435 5.222-10.882" fill="#043e40"/></g><g transform="translate(121.77 264.39)"><path d="m0 0c-1.562-4.447-6.435-6.785-10.882-5.222s-6.785 6.435-5.222 10.882 6.435 6.785 10.882 5.222 6.785-6.435 5.222-10.882z" fill="none" stroke="#fff" stroke-miterlimit="10" stroke-width="2.07"/></g><g transform="translate(117.27 265.98)"><path d="m0 0c-0.689-1.962-2.839-2.994-4.801-2.304-1.963 0.689-2.994 2.839-2.304 4.801 0.689 1.962 2.839 2.994 4.801 2.304 1.962-0.689 2.993-2.839 2.304-4.801" fill="#fff"/></g><g transform="translate(89.994 207.79)"><path d="m0 0c-1.562-4.447-6.435-6.785-10.881-5.222-4.448 1.563-6.786 6.435-5.223 10.881 1.563 4.447 6.435 6.785 10.882 5.223 4.447-1.564 6.785-6.435 5.222-10.882" fill="#043e40"/></g><g transform="translate(89.994 207.79)"><path d="m0 0c-1.562-4.447-6.435-6.785-10.881-5.222-4.448 1.563-6.786 6.435-5.223 10.881 1.563 4.447 6.435 6.785 10.882 5.223 4.447-1.564 6.785-6.435 5.222-10.882z" fill="none" stroke="#fff" stroke-miterlimit="10" stroke-width="2.07"/></g><g transform="translate(85.495 209.37)"><path d="m0 0c-0.689-1.962-2.839-2.994-4.801-2.304-1.963 0.69-2.994 2.839-2.304 4.801 0.689 1.963 2.839 2.994 4.801 2.305 1.962-0.69 2.993-2.84 2.304-4.802" fill="#fff"/></g><g transform="translate(167.94 166.83)"><path d="m0 0c-8.381-0.751-15.785 5.435-16.537 13.816-0.751 8.382 5.434 15.786 13.816 16.538 8.382 0.75 15.786-5.435 16.537-13.817s-5.434-15.785-13.816-16.537" fill="#fff"/></g><g transform="translate(168.69 182.2)"><path d="m0 0 12.04 1.08" fill="none" stroke="#01677d" stroke-linecap="round" stroke-miterlimit="10" stroke-width="2.141"/></g><g transform="translate(167.94 166.83)"><path d="m0 0c-8.381-0.751-15.785 5.435-16.537 13.816-0.751 8.382 5.434 15.786 13.816 16.538 8.382 0.75 15.786-5.435 16.537-13.817s-5.434-15.785-13.816-16.537z" fill="none" stroke="#6bc4d8" stroke-miterlimit="10" stroke-width="3.893"/></g><g transform="translate(182.17 204.45)"><path d="m0 0c-0.613-1.957-2.697-3.046-4.654-2.433-1.957 0.614-3.046 2.698-2.433 4.655s2.697 3.046 4.654 2.432c1.957-0.613 3.046-2.697 2.433-4.654" fill="#043e40"/></g><g transform="translate(190.2 196.65)"><path d="m0 0c-0.613-1.957-2.697-3.046-4.654-2.433-1.957 0.614-3.046 2.698-2.432 4.655 0.613 1.957 2.696 3.046 4.653 2.432 1.957-0.613 3.047-2.697 2.433-4.654" fill="#043e40"/></g><g transform="translate(197.69 189.58)"><path d="m0 0c-0.613-1.957-2.697-3.046-4.654-2.433-1.957 0.614-3.046 2.698-2.433 4.655 0.614 1.956 2.697 3.046 4.654 2.432s3.047-2.697 2.433-4.654" fill="#043e40"/></g><g transform="translate(207.11 243.66)"><path d="m0 0-7.062-18.826c-6.585 4.145-5.593 14.033 1.683 16.789z" fill="#043e40"/></g><g transform="translate(230.73 222.71)"><path d="m0 0-17.475-9.947c5.134-5.847 14.741-3.307 16.313 4.313z" fill="#043e40"/></g><g transform="translate(155.88 57.255)"><path d="m0 0c-2.893-8.231-11.911-12.56-20.143-9.667-8.232 2.894-12.559 11.911-9.666 20.143s11.911 12.559 20.142 9.667c8.232-2.893 12.56-11.912 9.667-20.143" fill="#6bc4d8"/></g><g transform="translate(146.03 67.662)"><path d="m0 0c2.855-2.792 2.906-7.37 0.113-10.226-2.792-2.854-7.37-2.905-10.225-0.113-2.855 2.793-2.906 7.371-0.113 10.226 2.792 2.854 7.37 2.905 10.225 0.113" fill="#fff"/></g><g transform="translate(66.834 178.5)"><path d="m0 0c-2.893-8.231-11.911-12.56-20.143-9.666-8.232 2.893-12.559 11.911-9.667 20.143 2.893 8.231 11.912 12.559 20.143 9.666 8.232-2.893 12.56-11.912 9.667-20.143" fill="#6bc4d8"/></g><g transform="translate(56.985 188.91)"><path d="m0 0c2.855-2.792 2.905-7.37 0.113-10.225s-7.37-2.906-10.225-0.113c-2.855 2.792-2.906 7.37-0.114 10.225 2.793 2.855 7.371 2.906 10.226 0.113" fill="#fff"/></g><g transform="translate(162.32 19.556)"><path d="m0 0c-1.563-4.446-6.435-6.784-10.882-5.222-4.447 1.563-6.785 6.435-5.222 10.882s6.435 6.785 10.882 5.222 6.785-6.435 5.222-10.882" fill="#043e40"/></g><g transform="translate(162.32 19.556)"><path d="m0 0c-1.563-4.446-6.435-6.784-10.882-5.222-4.447 1.563-6.785 6.435-5.222 10.882s6.435 6.785 10.882 5.222 6.785-6.435 5.222-10.882z" fill="none" stroke="#fff" stroke-miterlimit="10" stroke-width="2.07"/></g><g transform="translate(157.82 21.138)"><path d="m0 0c-0.689-1.963-2.839-2.994-4.801-2.305-1.963 0.69-2.994 2.84-2.304 4.802 0.689 1.962 2.838 2.993 4.801 2.304 1.962-0.69 2.993-2.839 2.304-4.801" fill="#fff"/></g><g transform="translate(123.41 35.86)"><path d="m0 0c-1.563-4.446-6.435-6.785-10.882-5.222s-6.785 6.435-5.222 10.882c1.563 4.446 6.435 6.785 10.882 5.222s6.784-6.435 5.222-10.882" fill="#043e40"/></g><g transform="translate(123.41 35.86)"><path d="m0 0c-1.563-4.446-6.435-6.785-10.882-5.222s-6.785 6.435-5.222 10.882c1.563 4.446 6.435 6.785 10.882 5.222s6.784-6.435 5.222-10.882z" fill="none" stroke="#fff" stroke-miterlimit="10" stroke-width="2.07"/></g><g transform="translate(118.91 37.441)"><path d="m0 0c-0.689-1.962-2.839-2.993-4.801-2.304-1.963 0.69-2.994 2.839-2.304 4.802 0.689 1.962 2.839 2.993 4.801 2.304 1.962-0.69 2.994-2.839 2.304-4.802" fill="#fff"/></g><g transform="translate(192.56 51.592)"><path d="m0 0c-1.563-4.446-6.435-6.785-10.882-5.222s-6.785 6.435-5.222 10.882c1.563 4.446 6.435 6.784 10.882 5.222 4.447-1.563 6.785-6.435 5.222-10.882" fill="#043e40"/></g><g transform="translate(192.56 51.592)"><path d="m0 0c-1.563-4.446-6.435-6.785-10.882-5.222s-6.785 6.435-5.222 10.882c1.563 4.446 6.435 6.784 10.882 5.222 4.447-1.563 6.785-6.435 5.222-10.882z" fill="none" stroke="#fff" stroke-miterlimit="10" stroke-width="2.07"/></g><g transform="translate(188.06 53.173)"><path d="m0 0c-0.69-1.962-2.839-2.993-4.802-2.304-1.962 0.69-2.993 2.839-2.304 4.802 0.689 1.962 2.839 2.993 4.802 2.304 1.962-0.69 2.993-2.839 2.304-4.802" fill="#fff"/></g><g transform="translate(185.11 77.676)"><path d="m0 0c-1.562-4.447-6.435-6.785-10.881-5.223-4.448 1.563-6.786 6.435-5.223 10.882s6.435 6.785 10.882 5.222 6.785-6.435 5.222-10.881" fill="#043e40"/></g><g transform="translate(185.11 77.676)"><path d="m0 0c-1.562-4.447-6.435-6.785-10.881-5.223-4.448 1.563-6.786 6.435-5.223 10.882s6.435 6.785 10.882 5.222 6.785-6.435 5.222-10.881z" fill="none" stroke="#fff" stroke-miterlimit="10" stroke-width="2.07"/></g><g transform="translate(180.61 79.257)"><path d="m0 0c-0.689-1.963-2.839-2.994-4.801-2.305-1.963 0.69-2.994 2.84-2.304 4.802 0.689 1.962 2.839 2.994 4.801 2.304s2.994-2.839 2.304-4.801" fill="#fff"/></g><g transform="translate(84.126 147.66)"><path d="m0 0c-1.458-4.148-6.001-6.329-10.149-4.871s-6.329 6.002-4.871 10.149c1.458 4.148 6.002 6.328 10.149 4.871 4.148-1.458 6.329-6.002 4.871-10.149" fill="#043e40"/></g></g></svg>
